<svg width="161" height="150" viewBox="0 0 161 150" fill="none" xmlns="http://www.w3.org/2000/svg">
<g opacity="0.7">
<path fill-rule="evenodd" clip-rule="evenodd" d="M1.48141 73.6559C1.89537 73.9629 2.47978 73.8762 2.78674 73.4622C9.33486 64.6317 15.7445 56.1164 25.021 50.2564C41.7712 39.6751 61.6825 37.0458 80.9569 41.1009C105.925 46.3539 129.966 61.0478 149.252 77.6563C149.642 77.9926 150.231 77.9486 150.567 77.5581C150.904 77.1677 150.86 76.5785 150.469 76.2422C131.047 59.5152 106.726 44.6153 81.3412 39.2747C61.6562 35.1332 41.2376 37.8048 24.0243 48.6786C14.4091 54.7526 7.80895 63.5563 1.28769 72.3506C0.980729 72.7646 1.06746 73.349 1.48141 73.6559Z" fill="#495057"/>
<path fill-rule="evenodd" clip-rule="evenodd" d="M143.592 76.9937C143.482 77.4972 143.801 77.9946 144.304 78.1047C146.572 78.6009 148.754 79.4215 150.927 80.3816C152.015 80.8623 153.071 81.3901 154.103 81.9752C154.218 82.0405 154.357 82.1295 154.52 82.2338C154.67 82.3292 154.839 82.4373 155.028 82.552C155.166 82.6356 155.387 82.7681 155.572 82.8334C155.615 82.8486 155.746 82.8941 155.911 82.8973C155.996 82.899 156.167 82.8919 156.355 82.7994C156.576 82.6906 156.76 82.4923 156.841 82.2322C156.91 82.0093 156.88 81.8203 156.858 81.7259C156.834 81.6241 156.798 81.5456 156.775 81.4995C156.729 81.4076 156.675 81.3342 156.641 81.2904C156.508 81.1169 156.374 80.9435 156.241 80.7703C154.506 78.5168 152.784 76.2809 151.228 73.9502C150.092 72.2492 149.055 70.5421 148.467 68.7077C148.31 68.2169 147.785 67.9464 147.294 68.1035C146.803 68.2606 146.533 68.7859 146.69 69.2767C147.362 71.3759 148.527 73.2659 149.676 74.9867C150.613 76.39 151.607 77.7582 152.619 79.1037C152.309 78.9566 151.996 78.8137 151.682 78.6745C149.452 77.6893 147.142 76.8151 144.703 76.2816C144.2 76.1715 143.702 76.4903 143.592 76.9937Z" fill="#495057"/>
</g>
</svg>
