<svg width="133" height="90" viewBox="0 0 133 90" fill="none" xmlns="http://www.w3.org/2000/svg">
<g opacity="0.7">
<path fill-rule="evenodd" clip-rule="evenodd" d="M131.912 0.68233C131.397 0.671729 130.971 1.08082 130.96 1.59605C130.734 12.5872 130.438 23.2411 126.268 33.3899C118.737 51.7154 104.025 65.3876 85.9623 73.2411C62.5633 83.4145 34.4541 85.3536 9.11412 82.978C8.60103 82.9299 8.14609 83.3069 8.09799 83.82C8.04989 84.333 8.42684 84.788 8.93993 84.8361C34.4606 87.2287 62.9169 85.2958 86.7064 74.9525C105.154 66.9318 120.255 52.9314 127.994 34.0993C132.317 23.5798 132.601 12.5805 132.826 1.63444C132.837 1.11921 132.428 0.692932 131.912 0.68233Z" fill="#495057"/>
<path fill-rule="evenodd" clip-rule="evenodd" d="M14.1119 80.2415C13.9102 79.7673 13.3622 79.5463 12.888 79.748C10.7516 80.6566 8.49736 81.2509 6.16992 81.7261C5.00444 81.9641 3.83827 82.145 2.65788 82.2655C2.52624 82.2789 2.36126 82.2869 2.16778 82.2963C1.99102 82.3049 1.79048 82.3147 1.56986 82.3308C1.40879 82.3425 1.15156 82.3627 0.96294 82.4165C0.919224 82.429 0.786394 82.4675 0.649694 82.5606C0.57957 82.6084 0.444499 82.713 0.344693 82.8973C0.227303 83.1141 0.192565 83.382 0.27695 83.6411C0.349247 83.8631 0.483265 83.9998 0.556046 84.0638C0.634535 84.1329 0.709231 84.1763 0.754872 84.2004C0.845845 84.2484 0.932137 84.2772 0.984949 84.2934C1.19426 84.3576 1.40347 84.4217 1.61256 84.4857C4.33192 85.3185 7.03004 86.1447 9.64865 87.1438C11.5598 87.8729 13.3937 88.6643 14.9345 89.82C15.3468 90.1292 15.9317 90.0456 16.2409 89.6334C16.5501 89.2211 16.4665 88.6362 16.0543 88.327C14.2909 87.0045 12.2472 86.1378 10.3139 85.4002C8.73719 84.7986 7.13416 84.2589 5.53028 83.7476C5.86845 83.6879 6.20602 83.6235 6.54328 83.5546C8.93176 83.0669 11.3209 82.4425 13.6184 81.4654C14.0926 81.2637 14.3135 80.7157 14.1119 80.2415Z" fill="#495057"/>
</g>
</svg>
