<svg width="159" height="157" viewBox="0 0 159 157" fill="none" xmlns="http://www.w3.org/2000/svg">
<g opacity="0.7">
<path fill-rule="evenodd" clip-rule="evenodd" d="M96.1817 1.2811C95.799 1.62625 95.7686 2.21628 96.1138 2.59897C103.477 10.7626 110.558 18.7282 114.47 28.9796C121.533 47.4901 120.177 67.5284 112.394 85.6219C102.311 109.06 83.1574 129.725 63.0662 145.348C62.6594 145.665 62.5861 146.251 62.9024 146.658C63.2188 147.065 63.805 147.138 64.2119 146.822C84.4464 131.086 103.857 110.189 114.108 86.3593C122.057 67.8806 123.472 47.3366 116.213 28.3142C112.158 17.6886 104.832 9.47923 97.4996 1.34908C97.1545 0.966387 96.5644 0.935952 96.1817 1.2811Z" fill="#495057"/>
<path fill-rule="evenodd" clip-rule="evenodd" d="M64.8337 139.932C64.362 139.724 63.8114 139.938 63.604 140.41C62.6695 142.535 61.434 144.512 60.0636 146.453C59.3773 147.424 58.6514 148.355 57.8739 149.251C57.7872 149.351 57.6724 149.47 57.5379 149.609C57.415 149.736 57.2755 149.881 57.1258 150.044C57.0165 150.163 56.8429 150.353 56.7423 150.522C56.719 150.561 56.6485 150.68 56.6127 150.841C56.5943 150.924 56.5676 151.093 56.6211 151.296C56.684 151.534 56.8422 151.753 57.0811 151.884C57.2858 151.996 57.4771 152.004 57.574 152.001C57.6785 151.997 57.7626 151.978 57.8124 151.964C57.9116 151.937 57.9942 151.899 58.0438 151.874C58.2402 151.778 58.4366 151.681 58.6328 151.585C61.1846 150.329 63.7165 149.083 66.3088 148.018C68.2007 147.24 70.079 146.561 71.9933 146.348C72.5054 146.291 72.8744 145.829 72.8173 145.317C72.7603 144.805 72.2988 144.436 71.7867 144.493C69.596 144.737 67.5132 145.505 65.5994 146.292C64.0385 146.933 62.5008 147.638 60.982 148.364C61.1874 148.089 61.3893 147.81 61.5879 147.529C62.9943 145.538 64.3075 143.447 65.3123 141.161C65.5198 140.69 65.3055 140.139 64.8337 139.932Z" fill="#495057"/>
</g>
</svg>
