<svg width="176" height="95" viewBox="0 0 176 95" fill="none" xmlns="http://www.w3.org/2000/svg">
<path fill-rule="evenodd" clip-rule="evenodd" d="M74.0389 0.807425C73.1653 1.47279 68.0861 6.54364 66.9532 7.88193C66.2785 8.67876 66.1462 9.04216 66.1462 10.0986C66.1462 10.9287 66.3303 11.6822 66.6826 12.2957L67.2193 13.2293L66.5637 14.1966C65.35 15.9875 65.4929 17.6156 67.0229 19.4367C67.3707 19.8505 67.6551 20.4285 67.6551 20.7208C67.6551 22.3339 69.8965 23.9281 72.1644 23.9281H73.497L73.3277 25.286C73.122 26.9338 73.5561 28.1517 74.6188 28.9095C75.2199 29.3381 75.9042 29.4648 78.4114 29.6116L81.4707 29.7909L81.7375 30.6004C82.1135 31.7412 83.6213 33.4223 84.8161 34.0327C85.4644 34.3636 86.6819 34.6306 88.2013 34.7747C91.7572 35.1116 92.5253 35.8898 92.782 39.4164L92.9289 41.4311H95.4118H97.8946L98.0002 38.2911C98.0699 36.2175 98.209 35.0857 98.4094 34.9582C98.5764 34.852 99.2788 34.7583 99.9703 34.75C104.336 34.6983 107.169 31.0154 106.164 26.6983L105.901 25.565L107.625 23.8021C109.525 21.8594 110.155 20.8244 110.155 19.6493C110.155 18.8597 109.368 17.0414 108.901 16.7523C108.753 16.6606 108.711 16.1821 108.802 15.614C109.059 14.0019 108.71 12.8704 107.622 11.7918C107.031 11.206 106.635 10.5754 106.635 10.2215C106.635 9.89641 106.182 8.9515 105.629 8.12193C105.075 7.29211 104.622 6.40109 104.622 6.14144C104.62 5.37332 103.699 4.08817 102.826 3.63612C102.35 3.38956 101.174 3.16719 99.9862 3.09894C98.0395 2.98712 97.9296 2.94758 97.234 2.11172C96.3002 0.989255 95.3459 0.506725 94.0605 0.506725C92.7745 0.506725 91.8785 0.963568 90.3522 2.39731C89.6946 3.01482 89.0742 3.52228 88.9731 3.52455C88.8722 3.52682 88.5675 3.09289 88.2961 2.56C87.7459 1.47959 86.9987 0.899349 85.7315 0.567169C84.4236 0.224663 83.1644 0.678986 81.5833 2.06462L80.1592 3.3125L79.6246 2.35777C78.8359 0.949969 77.6633 0.254883 76.0764 0.254883C75.1138 0.254883 74.5711 0.401959 74.0389 0.807425ZM74.6269 2.03692C72.9425 3.42759 67.7876 8.81551 67.5062 9.47987C66.9286 10.8436 68.0471 12.6994 69.3559 12.5486C69.9936 12.475 70.054 12.3675 70.1777 11.0841C70.3427 9.37132 70.6482 8.80921 72.3291 7.12615C73.6926 5.76066 74.3455 5.49421 74.6136 6.19357C74.7154 6.45952 74.3032 7.06671 73.3748 8.01943C72.6095 8.80467 71.7992 9.81456 71.5742 10.2633C70.7659 11.8764 71.8546 13.3507 73.8538 13.3507C74.942 13.3507 75.0008 13.3043 78.8402 9.40859C82.164 6.03643 82.7814 5.5131 83.1118 5.78786C83.3246 5.9644 83.4951 6.23664 83.4913 6.39278C83.4875 6.54918 82.248 7.91215 80.7366 9.42219C77.9142 12.2421 77.5217 12.9064 77.8343 14.3319C78.0581 15.3528 78.7705 15.9089 80.0302 16.0467C80.9931 16.1517 81.225 16.0645 82.1839 15.2365C83.2255 14.3374 84.0013 14.2067 84.0013 14.9302C84.0013 15.3181 82.6267 16.6826 81.8175 17.0981C80.3171 17.8685 77.6954 16.9548 76.9108 15.3881C76.2743 14.1168 76.1579 14.0672 74.8567 14.5112C73.7563 14.8867 73.5772 14.8867 72.5989 14.5127C72.0145 14.289 70.8979 14.1062 70.1178 14.1062C68.9653 14.1062 68.5572 14.2263 67.9393 14.7469C66.9809 15.5543 66.79 16.1552 67.1469 17.2381C67.5779 18.5459 67.9994 18.7524 70.5215 18.8912C72.6593 19.0088 72.8157 19.0544 72.8909 19.5838C72.9669 20.1207 72.8866 20.1504 71.3672 20.1504C70.4267 20.1504 69.5731 20.2894 69.3041 20.4864C68.8692 20.805 68.8838 20.8659 69.586 21.6527C70.3075 22.4613 70.3852 22.4847 72.5738 22.5515C73.8098 22.589 75.0044 22.5215 75.2282 22.4016C75.452 22.2815 75.7062 21.7383 75.7933 21.1943C75.9638 20.1262 77.2375 18.7582 78.2847 18.518C78.5935 18.4472 80.4303 18.3606 82.3667 18.3253L85.8874 18.2616L85.8321 17.632C85.8017 17.2857 85.7049 16.5813 85.6168 16.0665C85.3865 14.7159 86.2191 13.1069 87.5309 12.3685C88.4576 11.8472 88.8557 11.7988 92.1204 11.8122C96.0654 11.8283 97.0414 11.6248 98.3055 10.5232C99.0529 9.87223 99.2003 9.82741 99.5247 10.152C100.06 10.6887 99.6032 11.3856 98.1529 12.2423C96.9727 12.9394 96.8844 12.9515 92.8844 12.9621C89.1564 12.9719 88.7571 13.017 88.1062 13.501C86.9542 14.3583 86.6653 15.0715 86.9945 16.2469C87.4803 17.9811 88.1362 18.2548 91.923 18.3047C95.0237 18.3457 95.1962 18.3749 95.2727 18.8713C95.3341 19.271 95.2148 19.3984 94.7697 19.4098C94.4488 19.4181 90.8979 19.4148 86.8788 19.4025C80.9549 19.3846 79.4023 19.4508 78.6795 19.7533C76.8593 20.5148 76.3661 22.6165 77.6949 23.9474L78.43 24.6836H83.8474C88.9072 24.6836 89.2817 24.7151 89.5198 25.1608C89.8669 25.8101 89.3025 26.2541 88.2254 26.179C86.7032 26.0732 86.5468 26.1531 86.2719 27.1751C85.9639 28.3207 86.1032 28.836 86.9774 29.7834L87.6161 30.476H94.0012H100.386L101.121 29.7398C101.526 29.3349 101.856 28.8843 101.856 28.7382C101.856 28.4506 99.9615 27.4538 99.4148 27.4538C99.2302 27.4538 98.6574 27.7286 98.1418 28.0646C95.2807 29.9284 91.924 27.745 92.4322 24.3511L92.5977 23.2458L91.6318 23.0861C91.1004 22.9983 88.4792 22.925 85.807 22.9235L80.9486 22.9207L81.0288 22.354L81.1093 21.7874L90.1221 21.6615L99.1352 21.5356L99.6188 20.9372C100.705 19.5923 100.485 17.8738 99.1078 16.944C98.3196 16.4121 97.9965 16.3728 94.4154 16.3728C90.7028 16.3728 89.8518 16.2056 90.4611 15.5954C90.5874 15.4689 92.5361 15.3591 94.7911 15.3513L98.8917 15.3375L100.437 13.775C102.408 11.782 103.655 10.8323 104.301 10.8323C105.028 10.8323 105.473 10.2233 105.166 9.64935C104.548 8.49138 103.882 8.19169 101.643 8.06199C99.6228 7.94514 99.4616 7.89553 99.3869 7.36943C99.3097 6.8252 99.3809 6.80278 101.189 6.80278C103.261 6.80278 103.518 6.61339 102.958 5.50151C102.614 4.81952 102.332 4.714 100.043 4.41255C98.5885 4.2209 97.9577 4.5289 97.6011 5.60452C97.2224 6.74687 95.2953 8.81752 94.6108 8.81752C93.7288 8.81752 93.9527 8.12495 95.318 6.62901C96.3666 5.47985 96.5754 5.09151 96.5754 4.29065C96.5754 2.85566 95.4792 1.76594 94.0354 1.76594C92.9628 1.76594 92.912 1.80825 87.3775 7.3309C81.9437 12.7528 81.1204 13.3857 80.7907 12.3937C80.7308 12.2134 81.8738 10.9101 83.3309 9.49749C87.8367 5.12853 88.2254 4.34858 86.7415 2.6562C86.071 1.89135 85.8057 1.76594 84.8586 1.76594C83.7745 1.76594 83.692 1.8294 79.9444 5.54357C76.3465 9.10966 75.1995 9.92084 75.1995 8.89962C75.1995 8.66767 75.9917 7.6598 76.9599 6.65974C78.7856 4.77419 78.9893 4.27051 78.475 2.91585C78.2007 2.19306 76.8517 1.26452 76.0742 1.26326C75.7945 1.26276 75.1432 1.6108 74.6269 2.03692ZM102.164 13.9601L100.223 15.8291L100.835 16.6574C101.714 17.8478 101.839 19.7913 101.119 21.0739C100.358 22.4296 99.3869 22.9207 97.4666 22.9207C94.9697 22.9207 94.3261 23.1257 93.8797 24.063C93.4062 25.0576 93.5956 26.0037 94.4365 26.8459C95.0718 27.4821 96.3586 27.6599 97.0783 27.2108C97.2858 27.0814 98.8309 25.5935 100.512 23.9044C102.669 21.737 103.686 20.8787 103.97 20.9878C104.68 21.2605 104.409 21.767 102.474 23.7885C100.266 26.0954 100.173 26.5802 101.941 26.5558C103.136 26.5389 103.157 26.5238 105.88 23.6994C107.59 21.9249 108.676 20.5886 108.775 20.1363C108.971 19.2418 108.502 18.2274 107.572 17.5386C106.948 17.0759 106.79 17.0565 106.063 17.3525C104.519 17.9811 104.12 17.9941 104.12 17.4159C104.12 16.818 105.088 16.225 106.564 15.9195C107.293 15.7686 107.534 15.5868 107.599 15.1408C107.828 13.5428 106.619 12.0915 105.057 12.0915C104.213 12.0915 103.88 12.3065 102.164 13.9601ZM74.8366 24.7397C74.1976 25.6532 74.3392 26.8829 75.1801 27.7251C75.8959 28.4418 75.9824 28.4612 78.4622 28.4612H81.0092L81.3907 27.5465C81.862 26.4173 81.6017 26.0813 80.2925 26.1292C78.8299 26.1825 77.6331 25.7705 76.8379 24.9395C75.9746 24.0369 75.3703 23.9767 74.8366 24.7397ZM83.0621 26.6192C82.9622 26.8706 82.8787 27.7561 82.8765 28.5871C82.8714 30.4228 83.4448 31.5339 84.9409 32.5869C85.8228 33.2077 86.283 33.3364 87.9468 33.4278C92.1304 33.658 94.0605 35.3451 94.0605 38.7719C94.0605 40.1621 94.1106 40.3008 94.6636 40.4398C94.9953 40.5232 95.533 40.5537 95.8581 40.5076C96.435 40.4257 96.4514 40.3517 96.5236 37.5275C96.5884 34.9799 96.5308 34.4888 96.0457 33.4467C95.329 31.9067 94.7999 31.7352 90.7702 31.7352C89.0018 31.7352 87.2756 31.6289 86.9343 31.4989C86.5933 31.369 85.9918 30.8396 85.5977 30.3223C84.9937 29.5288 84.881 29.1422 84.8777 27.851L84.8737 26.3206L84.0587 26.2415C83.4579 26.1833 83.1958 26.2825 83.0621 26.6192ZM103.786 27.5614C103.416 27.9046 103.114 28.3736 103.114 28.6038C103.114 29.3918 102.026 30.9613 101.211 31.3483C100.758 31.5637 99.7234 31.7352 98.8784 31.7352C98.043 31.7352 97.2948 31.8399 97.2156 31.9681C97.1367 32.0963 97.2048 32.493 97.367 32.8496C97.6371 33.4432 97.7915 33.4981 99.1935 33.4965C100.036 33.4958 101.157 33.3749 101.686 33.2281C102.817 32.9135 104.441 31.5239 104.859 30.512C105.21 29.6645 105.116 27.1539 104.729 27.0265C104.58 26.9774 104.156 27.2181 103.786 27.5614ZM61.9213 55.4587C61.7023 55.6781 61.6196 57.5367 61.6196 62.2406C61.6196 67.8922 61.6719 68.7723 62.0292 69.1302C62.2546 69.3559 62.6034 69.4773 62.8043 69.4002C63.0052 69.3229 63.217 69.2597 63.2748 69.2597C63.3326 69.2597 63.3799 67.9166 63.3799 66.2748C63.3799 63.5942 63.438 63.2026 63.949 62.4342C64.6833 61.3302 66.1374 60.5998 67.1554 60.8237C68.4374 61.1058 68.7614 62.0869 68.8059 65.8238C68.8453 69.1504 68.9859 69.6077 69.9184 69.445C70.232 69.3904 70.3072 68.696 70.3645 65.3362C70.4302 61.4795 70.4068 61.2536 69.8571 60.4366C69.5211 59.9372 68.9492 59.4847 68.4857 59.3517C67.3199 59.0167 65.5117 59.3693 64.6436 60.1007C64.2309 60.4485 63.7758 60.6605 63.6322 60.5716C63.4783 60.4762 63.3834 59.4434 63.4013 58.0529C63.4179 56.7565 63.3565 55.5743 63.2653 55.426C63.0427 55.0656 62.2958 55.0837 61.9213 55.4587ZM0.174568 55.8282C0.0822749 55.9203 0.00683082 58.9198 0.00683082 62.4929C0.00683082 70.2602 -0.342978 69.6417 3.94175 69.4523C6.35495 69.3458 6.97938 69.2272 8.10878 68.6613C10.5006 67.4633 11.7786 64.8718 11.4922 61.8009C11.3086 59.8317 10.866 58.7611 9.70191 57.4707C8.39647 56.0236 7.13127 55.6602 3.39905 55.6602C1.71765 55.6602 0.26661 55.7357 0.174568 55.8282ZM27.7831 55.9793C27.716 56.1548 27.6911 59.1741 27.728 62.6888C27.7889 68.457 27.8382 69.1063 28.2355 69.3571C28.5562 69.5594 28.7951 69.5596 29.1157 69.3574C29.5017 69.1138 29.5711 68.4953 29.6815 64.3218L29.8073 59.5637L30.6598 61.0748C34.5897 68.0415 34.5419 68.006 36.1451 65.1672C36.7122 64.1629 37.4322 62.8881 37.7453 62.334C38.0581 61.78 38.4725 61.0171 38.6662 60.6391C39.3842 59.2366 39.4893 59.6501 39.4928 63.8932C39.4946 66.2214 39.5635 68.3777 39.6457 68.6847C39.8107 69.3012 40.6637 69.6954 41.0326 69.3259C41.1641 69.1942 41.2919 66.1539 41.3218 62.438L41.3754 55.7861H40.3966C39.4226 55.7861 39.4111 55.7979 38.0669 58.1786C37.324 59.4945 36.3166 61.3435 35.828 62.2874C35.2405 63.4227 34.8107 63.9768 34.558 63.9244C34.2024 63.8506 33.8448 63.258 31.3197 58.5564C29.7658 55.6635 29.763 55.6602 28.7878 55.6602C28.3024 55.6602 27.8503 55.8037 27.7831 55.9793ZM109.046 55.8768C108.883 56.1407 109.055 56.6799 109.865 58.4385C110.15 59.0573 110.622 60.187 110.913 60.9489C111.205 61.7107 111.765 63.0706 112.159 63.971C112.552 64.8713 113.196 66.3834 113.59 67.3313C113.983 68.279 114.507 69.1635 114.754 69.2969C115.332 69.6087 116.097 69.3647 116.278 68.8106C116.612 67.7902 118.39 63.9347 118.644 63.6798C118.848 63.4759 119.029 63.6549 119.317 64.3465C119.534 64.8663 119.712 65.3312 119.712 65.3793C119.712 65.4276 119.994 66.0865 120.34 66.8435C120.686 67.6005 120.969 68.3379 120.969 68.4822C120.969 68.6263 121.244 68.925 121.581 69.1458C122.37 69.6636 123.042 69.3309 123.494 68.1989C123.676 67.7436 124.079 66.8022 124.389 66.1074C124.7 65.4123 125.195 64.2314 125.489 63.4832C125.784 62.7349 126.235 61.6603 126.492 61.0952C127.226 59.4826 128.513 56.1765 128.513 55.9055C128.513 55.7705 128.115 55.6602 127.627 55.6602C126.894 55.6602 126.693 55.7801 126.467 56.3527C126.317 56.7335 125.71 58.2919 125.118 59.8156C122.919 65.4825 122.371 66.7478 122.153 66.6748C121.908 66.5929 119.987 62.2748 119.972 61.7724C119.967 61.6021 120.421 60.3104 120.982 58.9021C122.032 56.2606 122.084 55.6602 121.259 55.6602C120.601 55.6602 120.273 56.12 119.606 57.9749C119.293 58.8488 118.893 59.5637 118.718 59.5637C118.544 59.5637 118.128 58.8362 117.795 57.9472C117.083 56.051 116.802 55.6602 116.152 55.6602C115.34 55.6602 115.389 56.2077 116.435 58.814C116.99 60.1959 117.444 61.5049 117.446 61.723C117.449 62.3199 115.574 66.532 115.299 66.5461C115 66.5612 115.029 66.6262 112.698 60.697C110.797 55.8604 110.756 55.7848 109.982 55.709C109.55 55.6665 109.129 55.742 109.046 55.8768ZM55.4905 56.2968C55.4035 56.5233 55.3325 57.2538 55.3325 57.92C55.3325 59.0021 55.2654 59.1482 54.7038 59.2895C54.2947 59.3922 54.0751 59.6237 54.0751 59.9526C54.0751 60.2596 54.3216 60.5515 54.7038 60.697C55.3318 60.936 55.3325 60.9403 55.3325 64.355C55.3325 68.2981 55.5679 69.0491 56.9465 69.5047C57.5803 69.7142 58.0878 69.718 58.8264 69.5188C59.9885 69.2055 60.209 68.959 59.9784 68.2316C59.8391 67.7919 59.6723 67.7345 58.8935 67.8589C57.3394 68.107 57.2292 67.8914 57.1314 64.4092C57.0358 61.0101 57.107 60.8114 58.4738 60.6562C58.9697 60.6001 59.2569 60.4097 59.316 60.0976C59.4282 59.5056 58.9001 59.1404 58.177 59.3104C57.4623 59.4784 57.2521 59.1112 57.0957 57.4231C56.978 56.1546 56.9116 56.0314 56.3078 55.9614C55.878 55.9115 55.5933 56.0284 55.4905 56.2968ZM2.01867 62.4599V67.7486H4.01417C6.28077 67.7486 7.12197 67.5013 8.1377 66.5362C9.18964 65.5369 9.6325 64.3218 9.62319 62.4599C9.60534 58.8354 7.80851 57.1712 3.91283 57.1712H2.01867V62.4599ZM13.9929 59.5116C13.625 59.7808 13.5833 60.3719 13.6436 64.4485C13.7045 68.5394 13.7638 69.1118 14.1526 69.3571C14.4725 69.5589 14.7124 69.5594 15.0305 69.3584C15.4055 69.1214 15.4746 68.6167 15.5126 65.8384L15.5569 62.5952L16.3302 61.9034C16.7557 61.5226 17.4158 61.1365 17.7971 61.0453C18.1786 60.9542 18.6322 60.7678 18.805 60.6315C19.2343 60.2928 19.2016 59.4537 18.7524 59.2809C18.2296 59.0802 16.7454 59.6202 16.2188 60.2029C15.6507 60.8315 15.3471 60.8313 15.3471 60.2022C15.3471 59.525 14.5379 59.1124 13.9929 59.5116ZM46.5307 59.3336C44.8554 59.9486 44.2674 60.3147 44.2674 60.7431C44.2674 61.4354 44.8868 61.5614 46.0333 61.102C47.6543 60.4525 48.9535 60.5661 49.8193 61.4332C50.2514 61.8658 50.5544 62.4368 50.5544 62.8183V63.4673H48.2785C45.7899 63.4673 44.9213 63.7569 44.0381 64.8814C43.4177 65.6712 43.3663 66.7332 43.8942 67.8476C44.7231 69.5966 47.1383 70.1152 49.3843 69.0265L50.5846 68.4447L51.1758 69.0008C51.501 69.3068 51.975 69.5173 52.2295 69.4687C52.7589 69.3677 52.9983 68.3324 52.5876 67.9211C52.4244 67.7577 52.3145 66.5287 52.3143 64.865C52.314 61.8016 51.9944 60.7658 50.7732 59.87C50.1111 59.3839 47.3455 59.0344 46.5307 59.3336ZM76.0462 59.3451C75.329 59.5056 73.5103 61.0861 73.0851 61.9185C71.4728 65.0748 73.3982 68.9753 76.8927 69.6319C78.595 69.9517 81.9895 68.378 81.9895 67.2691C81.9895 66.7198 80.7253 66.6604 80.1524 67.1827C78.3644 68.8121 76.0488 68.5104 74.8633 66.4937C74.0357 65.0859 74.2454 64.9987 78.6471 64.9219L82.6182 64.8524L82.5772 63.6542C82.5287 62.2313 81.9493 61.1491 80.6898 60.1296C79.9233 59.5093 79.4983 59.3698 78.175 59.3041C77.2991 59.2608 76.3412 59.2792 76.0462 59.3451ZM84.9228 59.3638C84.4947 59.4743 84.4671 59.772 84.5455 63.427C84.6431 67.9846 84.8926 68.7056 86.6084 69.3931C87.8289 69.8822 89.5251 69.5657 90.8232 68.6064L91.6536 67.9929L91.9758 68.6092C92.3346 69.2949 93.0214 69.6052 93.6479 69.3644C94.1013 69.1902 94.2077 68.3732 93.8091 68.1264C93.6579 68.0329 93.5576 66.3219 93.5576 63.839C93.5576 60.0168 93.5214 59.6879 93.0727 59.4476C92.0137 58.88 91.8523 59.2754 91.7592 62.6662C91.6846 65.3823 91.5963 65.9603 91.1685 66.5312C90.4832 67.4456 89.4891 68.0005 88.5355 68.0005C86.6376 68.0005 86.2647 67.1301 86.2647 62.7012C86.2647 60.007 86.2008 59.4673 85.8668 59.3388C85.648 59.2547 85.4501 59.1991 85.4267 59.2152C85.4036 59.2313 85.1768 59.298 84.9228 59.3638ZM97.6879 59.6632C96.9913 59.98 96.5547 60.3908 96.3256 60.9446C95.9099 61.9494 95.9069 62.2076 96.3 63.1578C96.6332 63.9634 97.4523 64.4243 100.169 65.3357C101.612 65.8198 101.737 65.9212 101.808 66.6642C101.963 68.2646 99.5961 68.7091 97.3001 67.5109C96.5029 67.0946 96.1936 67.0397 95.9208 67.2663C95.1042 67.945 95.9047 68.7517 98.039 69.4002C99.4566 69.8311 99.9226 69.8437 101.208 69.4863C102.737 69.0615 103.617 68.0274 103.617 66.6571C103.617 65.7067 103.495 65.4241 102.851 64.8814C102.43 64.5263 101.353 64.0095 100.459 63.733C98.1152 63.0079 97.8328 62.8148 97.8328 61.9346C97.8328 61.2959 97.9829 61.1113 98.7758 60.7751C99.665 60.3978 99.8091 60.4064 101.3 60.9227C102.991 61.5082 103.365 61.4624 103.365 60.6698C103.365 59.4197 99.6653 58.7639 97.6879 59.6632ZM130.877 59.5199C130.448 59.6826 129.826 60.0037 129.494 60.2339C128.926 60.6278 128.915 60.6776 129.316 61.0919C129.717 61.5057 129.807 61.507 130.834 61.1146C132.858 60.3402 134.511 60.6645 135.184 61.9681C135.86 63.2782 135.599 63.4673 133.111 63.4683C131.304 63.4691 130.743 63.5663 130.027 64.0037C128.783 64.7633 128.53 65.1937 128.521 66.5718C128.515 67.5766 128.637 67.911 129.226 68.5009C130.361 69.6372 131.689 69.919 133.388 69.3838C134.161 69.1403 134.923 68.7849 135.081 68.5948C135.318 68.3085 135.469 68.3578 135.952 68.8801C136.962 69.9716 138.353 69.4188 137.606 68.2223C137.431 67.9415 137.315 66.6392 137.315 64.9532C137.315 62.5166 137.242 62.0197 136.751 61.1461C136.021 59.8443 134.732 59.1799 132.987 59.2051C132.255 59.2157 131.306 59.3572 130.877 59.5199ZM141.465 59.5728C141.05 59.7839 140.512 60.1923 140.27 60.4807C139.836 60.9975 139.68 62.5302 139.981 63.3157C140.197 63.8801 141.585 64.6784 143.14 65.133C145.662 65.8696 146.248 66.7095 144.951 67.7302C144.05 68.4404 142.691 68.3966 141.213 67.6101C139.865 66.8918 139.251 66.9586 139.372 67.8106C139.495 68.6736 141.543 69.5969 143.32 69.5898C145.878 69.5795 147.374 68.4523 147.374 66.536C147.374 65.2919 146.563 64.5799 144.291 63.8322C143.152 63.457 142.021 62.9772 141.779 62.7659C140.168 61.3596 143.147 59.9299 145.372 61.0418C146.41 61.5603 146.777 61.5596 146.976 61.0383C147.508 59.6514 143.438 58.5692 141.465 59.5728ZM151.375 59.7723C149.725 60.6446 148.754 62.3426 148.769 64.3291C148.781 65.989 149.374 67.4472 150.431 68.4157C151.047 68.9809 153.072 69.7633 153.919 69.7633C154.629 69.7633 156.906 68.8567 157.462 68.3525C158.387 67.5141 157.697 66.2366 156.708 66.9566C154.722 68.4024 153.616 68.6064 152.258 67.7773C151.415 67.2623 150.46 65.5654 150.814 65.2108C150.934 65.0907 152.784 64.9607 154.925 64.9222L158.817 64.8524L158.904 64.2339C159.033 63.3177 158.517 61.8349 157.752 60.9244C156.294 59.1898 153.448 58.6755 151.375 59.7723ZM164.35 59.5683C163.935 59.7927 163.417 60.1384 163.198 60.3366C162.631 60.8512 162.463 60.7862 162.463 60.0516C162.463 59.4748 162.376 59.4144 161.646 59.4849L160.829 59.5637L160.76 64.1901C160.691 68.8341 160.797 69.5115 161.596 69.5115C162.428 69.5115 162.682 68.7839 162.671 66.4252C162.654 62.8495 162.665 62.7858 163.467 61.8709C164.732 60.4286 166.615 60.4414 167.217 61.8966C167.385 62.3048 167.55 64.0339 167.584 65.7656C167.618 67.4875 167.731 69.0345 167.836 69.2038C168.116 69.6583 168.951 69.5772 169.205 69.0708C169.327 68.8285 169.378 67.8934 169.319 66.9931C169.261 66.0928 169.286 64.76 169.377 64.0314C169.642 61.8986 171.179 60.4721 172.822 60.8335C173.999 61.0924 174.283 62.0069 174.283 65.5473C174.283 68.8582 174.514 69.649 175.431 69.4727C175.883 69.3858 175.922 69.1058 175.987 65.5309C176.065 61.1879 175.821 60.2301 174.455 59.5229C173.294 58.9215 171.424 59.2253 170.194 60.2153L169.212 61.006L168.526 60.1838C167.936 59.4761 167.65 59.3474 166.472 59.2608C165.528 59.1913 164.87 59.2865 164.35 59.5683ZM76.1471 60.9637C75.233 61.447 74.4451 62.5418 74.4451 63.3288C74.4451 63.6612 74.9294 63.7191 77.7143 63.7191C81.311 63.7191 81.3703 63.6879 80.6011 62.198C80.1841 61.3906 78.5777 60.4386 77.6615 60.4563C77.3446 60.4626 76.6634 60.6907 76.1471 60.9637ZM152.416 60.898C151.463 61.3687 150.51 62.7563 150.736 63.3452C150.954 63.9138 157.182 63.8982 157.182 63.3288C157.182 62.5219 156.383 61.4402 155.427 60.9514C154.234 60.3422 153.566 60.3303 152.416 60.898ZM46.2792 64.9282C45.5454 65.2863 45.3865 65.5097 45.3226 66.2723C45.2608 67.0155 45.3732 67.287 45.9224 67.7196C47.5766 69.0227 50.5544 67.7176 50.5544 65.6896C50.5544 65.1096 50.4068 64.961 49.6114 64.7399C48.2913 64.3727 47.3035 64.4286 46.2792 64.9282ZM131.341 64.8509C130.509 65.2131 129.88 66.2854 130.184 66.8254C130.274 66.9868 130.578 67.3739 130.858 67.6857C131.503 68.4037 133.094 68.4475 134.192 67.7776C135.027 67.2671 135.703 65.9812 135.464 65.3569C135.131 64.4883 132.824 64.2052 131.341 64.8509ZM18.5442 67.4013C18.217 67.7287 18.3586 68.9411 18.7633 69.2773C19.3754 69.786 19.9995 69.2549 19.9995 68.2248C19.9995 67.498 19.9045 67.3598 19.3615 67.2963C19.0105 67.2553 18.6425 67.3026 18.5442 67.4013ZM138.94 78.8465C138.708 79.2215 138.976 79.4253 139.458 79.2404C139.68 79.1551 139.792 78.971 139.705 78.8314C139.502 78.5013 139.148 78.5081 138.94 78.8465ZM41.5803 80.2077C39.9455 80.9157 39.5076 83.0634 40.721 84.4233C42.6273 86.5602 45.8751 84.271 44.7606 81.5763C44.2126 80.2511 42.842 79.6615 41.5803 80.2077ZM91.1685 80.0367C90.8919 80.0924 90.3542 80.4314 89.974 80.79C89.4109 81.3211 89.2824 81.6614 89.2824 82.6201C89.2824 84.4619 90.7133 85.6244 92.4184 85.1675C93.1758 84.9648 93.7927 84.27 93.4874 83.964C93.3894 83.866 92.9045 84.002 92.4096 84.2667L91.5103 84.748L90.7737 83.9255C89.8749 82.9224 89.8437 82.2744 90.6542 81.4627C91.3682 80.7474 91.6609 80.7107 92.6259 81.2146C93.2523 81.5418 93.3456 81.5382 93.4821 81.1819C93.718 80.5661 92.221 79.8249 91.1685 80.0367ZM101.228 80.0816L100.222 80.2148V82.6073V84.9998L101.228 85.1262C102.44 85.2786 103.617 85.1469 103.617 84.859C103.617 84.7439 103.079 84.615 102.422 84.5729C101.328 84.5027 101.221 84.4377 101.148 83.8036C101.073 83.1485 101.124 83.111 102.091 83.111C103.481 83.111 103.481 82.4786 102.091 82.256C101.215 82.1157 101.08 82.0117 101.148 81.5314C101.214 81.0693 101.427 80.9482 102.359 80.8444C102.982 80.7752 103.461 80.6052 103.423 80.4666C103.324 80.0967 102.374 79.93 101.228 80.0816ZM6.46686 80.2516C6.37155 80.3468 6.29384 81.4823 6.29384 82.7753C6.29384 84.6966 6.36275 85.1257 6.67106 85.1257C6.96077 85.1257 7.04829 84.8039 7.04829 83.7406C7.04829 82.9788 7.13329 82.3539 7.2369 82.3519C7.34051 82.3502 7.99964 82.9931 8.70152 83.7811C10.4269 85.7181 10.7448 85.5712 10.7891 82.8166C10.8077 81.6626 10.7219 80.5623 10.5984 80.3715C10.1802 79.7252 9.81457 80.3639 9.81457 81.7407C9.81457 82.4945 9.70945 83.111 9.58095 83.111C9.45244 83.111 8.85819 82.4683 8.26067 81.6825C7.16321 80.24 6.78197 79.9358 6.46686 80.2516ZM12.5809 82.5733V85.0809L14.0943 85.1663C15.7294 85.2585 16.1016 85.203 16.1016 84.8666C16.1016 84.7472 15.5642 84.615 14.9071 84.5729C13.8207 84.5032 13.7055 84.4349 13.6346 83.8197C13.5631 83.2014 13.6388 83.1364 14.5147 83.0641C15.623 82.9727 15.8939 82.255 14.8442 82.1915C14.4984 82.1704 14.0661 82.1422 13.8835 82.1286C13.6881 82.1137 13.5848 81.8709 13.632 81.537C13.6987 81.0683 13.9084 80.9484 14.8442 80.8444C16.5485 80.6548 16.2029 80.2249 14.2784 80.1403L12.5809 80.066V82.5733ZM17.4681 80.9703C17.1052 82.9078 17.8318 84.7699 19.098 85.1474C21.0721 85.7362 22.2136 84.4503 22.0861 81.781C22.0262 80.5301 21.9239 80.2032 21.5713 80.136C21.1918 80.0635 21.1312 80.2599 21.1312 81.5652C21.1312 83.4024 20.8319 84.2715 20.1218 84.4974C19.1515 84.8056 18.6164 84.0038 18.6164 82.2409C18.6164 80.1486 17.7928 79.2372 17.4681 80.9703ZM23.8427 80.4037C23.6437 80.9802 23.6043 83.1251 23.774 84.132C23.9676 85.2801 24.578 85.4791 24.6982 84.4332C24.8164 83.4039 25.7308 83.3603 26.318 84.3556C26.5677 84.7792 26.9741 85.1257 27.221 85.1257C27.769 85.1257 27.773 85.0492 27.2741 84.0829C26.9145 83.3865 26.9145 83.2775 27.2741 82.8793C27.8663 82.224 27.7796 80.9499 27.1106 80.481C26.4246 79.9997 24.0018 79.9423 23.8427 80.4037ZM30.0087 80.5351C28.8185 81.472 28.6922 83.5905 29.7683 84.5676C31.5053 86.1447 33.9567 84.9265 33.9567 82.4862C33.9567 80.5654 31.508 79.3553 30.0087 80.5351ZM35.6386 80.2516C35.3185 80.5722 35.443 84.7956 35.7799 85.0456C36.1235 85.3005 38.6539 85.2907 38.9109 85.0333C39.188 84.7558 38.8503 84.6226 37.7073 84.5583L36.5972 84.4961L36.4715 82.3754C36.3568 80.4417 36.1008 79.7887 35.6386 80.2516ZM46.9303 80.8638C45.7951 82.2147 46.1603 84.3123 47.6624 85.0681C47.939 85.2071 48.7596 85.2627 49.4856 85.1915L50.8059 85.0618V83.8345C50.8059 82.6549 50.7782 82.6073 50.0935 82.6073C49.1185 82.6073 48.9668 82.8405 49.6051 83.358L50.1435 83.7945L49.4811 84.2292C48.6381 84.7822 47.898 84.5578 47.4029 83.5991C46.925 82.6738 47.1481 81.7014 47.9604 81.1685C48.5237 80.7988 48.6452 80.8001 49.4464 81.1826C50.2552 81.569 50.3306 81.5692 50.4775 81.1854C50.7088 80.582 49.8837 80.0889 48.6427 80.0889C47.7663 80.0889 47.468 80.2239 46.9303 80.8638ZM52.4981 80.407C52.4267 80.5936 52.3844 81.7014 52.4043 82.8692C52.4355 84.6905 52.5044 85.0043 52.8899 85.0791C53.3006 85.1587 53.3333 84.9545 53.2671 82.7111C53.2219 81.1731 53.0891 80.2206 52.9115 80.1617C52.7556 80.1098 52.5698 80.2203 52.4981 80.407ZM55.6846 80.2815C55.5325 80.3833 55.285 80.7004 55.1349 80.9862C54.7046 81.8062 55.281 82.6554 56.5733 83.1052C57.1822 83.3172 57.7274 83.6318 57.785 83.8048C57.9427 84.2788 56.8294 84.5916 56.0063 84.3042C55.1243 83.9965 54.607 84.3755 55.2174 84.8827C55.8584 85.4153 58.0863 85.3244 58.507 84.7482C59.2916 83.6739 58.7024 82.5668 57.1731 82.2414C56.7333 82.1477 56.251 81.9236 56.1013 81.743C55.6768 81.231 56.4124 80.7653 57.328 80.9668C58.2822 81.1766 58.7409 80.9378 58.3317 80.4442C58.0229 80.0715 56.169 79.9577 55.6846 80.2815ZM59.9839 80.3425C59.8977 80.482 60.0043 80.652 60.2206 80.7202C60.4366 80.7885 60.7834 80.8975 60.9909 80.9625C61.2589 81.0464 61.3681 81.438 61.3681 82.3162C61.3681 84.0453 61.6218 85.1257 62.0282 85.1257C62.29 85.1257 62.374 84.6792 62.374 83.2873C62.374 81.3886 62.6094 80.8444 63.4302 80.8444C63.6792 80.8444 63.8829 80.6744 63.8829 80.4666C63.8829 80.1647 63.5074 80.0889 62.0116 80.0889C60.9823 80.0889 60.0699 80.203 59.9839 80.3425ZM65.9234 81.537C65.6118 82.3336 65.1949 83.3573 64.9969 83.8121C64.7993 84.2669 64.6373 84.7487 64.6373 84.8824C64.6373 85.3385 65.2997 85.1272 65.8477 84.4961C66.1565 84.1405 66.6663 83.8665 67.0188 83.8665C67.4076 83.8665 67.7992 84.1043 68.0555 84.4961C68.4714 85.132 69.164 85.3554 69.164 84.854C69.164 84.6205 68.4181 82.5592 67.6445 80.6555C67.2218 79.6152 66.5388 79.965 65.9234 81.537ZM79.4015 80.246C79.3034 80.3443 79.2232 81.4219 79.2232 82.6403C79.2232 85.1358 79.4551 85.4735 81.0293 85.2683C81.4883 85.2086 82.0619 85.1522 82.3038 85.1426C83.2751 85.1053 82.6652 84.6447 81.5494 84.5729C80.4633 84.5032 80.3549 84.439 80.3549 83.8665C80.3549 83.3281 80.4927 83.2188 81.3062 83.111C82.5284 82.9493 82.5314 82.5731 81.313 82.2308C80.6187 82.0356 80.3549 81.8251 80.3549 81.466C80.3549 81.065 80.5711 80.9462 81.4865 80.8444C82.1089 80.7752 82.6182 80.6052 82.6182 80.4666C82.6182 80.1778 79.6713 79.9758 79.4015 80.246ZM84.6479 80.4845C83.7609 81.373 84.503 83.111 85.7695 83.111C85.989 83.111 86.3881 83.2739 86.6567 83.4734C87.1207 83.8179 87.1232 83.8577 86.7073 84.2803C86.3207 84.6732 86.1646 84.687 85.3681 84.3987C84.3989 84.0476 84.109 84.1352 84.33 84.712C84.537 85.2519 86.3484 85.4854 87.1949 85.0809C87.7046 84.8374 87.9201 84.5304 87.975 83.9693C88.062 83.0775 87.7494 82.7471 86.364 82.2666C85.6885 82.0324 85.3845 81.7785 85.3845 81.4486C85.3845 81.0625 85.5781 80.9658 86.3904 80.9469C87.8558 80.9127 87.9506 80.8673 87.4112 80.4586C86.7666 79.9705 85.1461 79.9859 84.6479 80.4845ZM95.2395 80.2516C94.9141 80.5772 95.0421 84.8804 95.3808 85.0089C96.0779 85.2733 97.9894 85.2824 98.4615 85.0237C98.8887 84.7895 98.7564 84.7291 97.5813 84.622L96.1981 84.4961L96.0724 82.3754C95.9577 80.4417 95.7017 79.7887 95.2395 80.2516ZM105.545 80.2569C105.453 80.349 105.377 81.4823 105.377 82.7753C105.377 84.6966 105.446 85.1257 105.754 85.1257C106.006 85.1257 106.132 84.8739 106.132 84.3702C106.132 83.7368 106.231 83.6147 106.746 83.6147C107.162 83.6147 107.504 83.8587 107.806 84.3702C108.051 84.7857 108.454 85.1257 108.701 85.1257C109.243 85.1257 109.244 85.1139 108.779 84.2176C108.454 83.5892 108.454 83.4359 108.779 82.9385C109.748 81.4576 108.859 80.0889 106.928 80.0889C106.259 80.0889 105.637 80.1644 105.545 80.2569ZM111.334 80.6971C110.173 81.7747 110.138 83.2324 111.242 84.5185C111.707 85.06 112.041 85.1945 112.921 85.1945C113.845 85.1945 114.137 85.063 114.757 84.3684C115.405 83.6419 115.478 83.4041 115.364 82.3907C115.27 81.5571 115.05 81.0799 114.567 80.6638C113.649 79.8728 112.206 79.8877 111.334 80.6971ZM117.197 80.5926C116.274 81.5166 116.747 82.4529 118.458 83.0863C119.723 83.5547 119.961 83.9673 119.201 84.3742C118.789 84.5951 118.482 84.5906 117.914 84.3548C117.023 83.9851 116.436 84.3458 117.07 84.8731C117.742 85.432 119.615 85.3343 120.24 84.7079C120.91 84.0375 120.729 82.9513 119.893 82.6217C119.586 82.5005 118.967 82.264 118.517 82.0961C117.046 81.5463 117.713 80.6822 119.368 80.9932C120.024 81.1166 120.215 81.067 120.215 80.7734C120.215 79.9458 117.977 79.8116 117.197 80.5926ZM122.128 80.4873C121.912 81.0502 121.945 84.4364 122.169 84.7898C122.399 85.1514 125.015 85.3005 125.512 84.9807C125.765 84.8172 125.461 84.7104 124.49 84.622C123.212 84.5057 123.101 84.4442 123.028 83.8187C122.955 83.186 123.022 83.1362 124.034 83.0631C125.294 82.9725 125.491 82.5174 124.32 82.4038C122.6 82.2368 122.557 80.9222 124.268 80.7966C124.853 80.7537 125.377 80.577 125.434 80.4037C125.603 79.8894 122.325 79.972 122.128 80.4873ZM129.771 82.6257C129.771 84.9066 129.815 85.1539 130.211 85.0771C130.546 85.0121 130.651 84.7414 130.651 83.9466C130.651 82.5652 130.913 82.364 131.46 83.3248C132.098 84.4427 132.463 84.4782 133.105 83.4847C133.415 83.0057 133.753 82.6121 133.857 82.6103C133.961 82.6088 134.046 83.1823 134.046 83.8849C134.046 84.9663 134.114 85.1497 134.486 85.0779C134.868 85.0041 134.926 84.679 134.926 82.6073C134.926 80.5596 134.866 80.21 134.497 80.139C134.2 80.0816 133.827 80.4845 133.279 81.4576C132.844 82.2285 132.384 82.7944 132.257 82.7153C132.129 82.6363 131.742 82.013 131.396 81.3302C130.962 80.4717 130.614 80.0889 130.269 80.0889C129.805 80.0889 129.771 80.2639 129.771 82.6257ZM136.813 80.4651C136.431 80.9263 136.683 83.7741 137.163 84.4233C138.071 85.6498 140.271 85.4559 140.978 84.0871C141.494 83.0886 141.388 80.2148 140.836 80.2148C140.554 80.2148 140.422 80.6283 140.315 81.8518C140.236 82.7521 140.087 83.6759 139.983 83.9045C139.718 84.4916 138.948 84.6306 138.337 84.2022C137.913 83.9045 137.818 83.5678 137.818 82.3618C137.818 80.2178 137.506 79.629 136.813 80.4651ZM143.053 81.2642C142.947 84.0811 142.961 84.7613 143.132 85.0026C143.285 85.2179 143.907 85.2448 146.306 85.1396C146.479 85.132 146.62 85.0124 146.62 84.8739C146.62 84.7354 146.139 84.6203 145.551 84.6183C144.963 84.616 144.346 84.5276 144.18 84.4216C143.997 84.3052 143.847 83.4407 143.802 82.2421C143.753 80.9323 143.621 80.2198 143.414 80.1511C143.195 80.0786 143.085 80.4175 143.053 81.2642ZM146.871 80.45C146.871 80.6565 147.167 80.8449 147.563 80.8907C148.249 80.9696 148.255 80.988 148.328 83.0644C148.391 84.8814 148.458 85.1479 148.831 85.0769C149.18 85.0101 149.284 84.619 149.386 82.9825C149.509 81.0104 149.526 80.9688 150.204 80.8907C150.599 80.8449 150.895 80.6565 150.895 80.45C150.895 80.1664 150.463 80.0889 148.883 80.0889C147.304 80.0889 146.871 80.1664 146.871 80.45ZM152.572 80.2569C152.479 80.349 152.404 81.4906 152.404 82.7937C152.404 84.9139 152.45 85.1539 152.844 85.0786C153.208 85.0091 153.297 84.6689 153.359 83.1112C153.46 80.5926 153.195 79.6325 152.572 80.2569ZM155.224 82.6703C155.268 84.2236 155.396 85.2297 155.548 85.1965C155.686 85.1663 155.835 84.8479 155.88 84.4891C155.963 83.8232 156.036 83.7706 157.251 83.5034C158.839 83.1546 159.426 81.6387 158.361 80.6364C157.916 80.2186 157.467 80.0889 156.466 80.0889H155.153L155.224 82.6703ZM160.357 80.4767C160.134 81.057 160.169 84.4354 160.401 84.8014C160.509 84.9706 161.207 85.1237 161.969 85.1449C163.787 85.1957 163.972 85.1706 163.972 84.8739C163.972 84.7354 163.491 84.6203 162.903 84.6183C162.316 84.616 161.698 84.5276 161.532 84.4216C161.349 84.3052 161.2 83.4407 161.155 82.2421C161.083 80.3422 160.718 79.5338 160.357 80.4767ZM166.299 81.2851C165.607 82.8596 164.978 84.5707 164.978 84.8789C164.978 85.3594 165.68 85.1169 166.087 84.4961C166.665 83.6124 167.79 83.6421 168.461 84.5591C168.84 85.0766 169.041 85.1796 169.257 84.9666C169.457 84.7686 169.469 84.5374 169.294 84.211C169.155 83.9524 168.788 83.0606 168.478 82.2295C167.519 79.6602 167.094 79.4761 166.299 81.2851ZM24.7628 81.4438C24.5486 82.2986 24.792 82.6073 25.6805 82.6073C27.036 82.6073 26.9434 81.0552 25.5784 80.8915C25.0548 80.8288 24.8888 80.9411 24.7628 81.4438ZM30.4543 81.508C29.7628 82.3882 29.796 83.2485 30.5504 84.0038C31.3187 84.7734 31.7082 84.781 32.4041 84.0393C33.0999 83.2974 33.1208 82.022 32.4478 81.3481C31.7618 80.6611 31.0762 80.716 30.4543 81.508ZM41.823 81.1013C40.7321 81.541 40.7276 83.3948 41.8155 84.2052L42.507 84.7205L43.1986 84.2052C44.3252 83.3661 44.287 81.6674 43.13 81.1393C42.7744 80.9771 42.4605 80.8517 42.4324 80.8603C42.4042 80.8691 42.1301 80.9776 41.823 81.1013ZM106.299 81.0124C106.207 81.1046 106.132 81.4881 106.132 81.8644C106.132 82.3537 106.286 82.5892 106.675 82.6909C107.793 82.9836 108.604 81.91 107.842 81.1466C107.516 80.8207 106.572 80.7386 106.299 81.0124ZM112.235 81.1496C111.893 81.3149 111.613 81.7412 111.52 82.2394C111.131 84.3181 113.37 85.3929 114.259 83.5542C114.694 82.6554 114.414 81.4916 113.666 81.091C113.111 80.7935 112.959 80.7998 112.235 81.1496ZM156.186 81.2101C155.665 81.8387 155.977 82.4738 156.848 82.5587C157.472 82.6194 157.678 82.5227 157.81 82.1059C158.131 81.0942 156.862 80.3944 156.186 81.2101ZM66.5536 82.2416C66.3567 82.7556 66.5632 83.111 67.0588 83.111C67.3055 83.111 67.4104 82.9196 67.3583 82.564C67.2585 81.886 66.7656 81.6883 66.5536 82.2416ZM166.906 82.0198C166.531 82.3955 166.751 83.111 167.241 83.111C167.767 83.111 167.847 82.9158 167.592 82.2502C167.43 81.8274 167.182 81.744 166.906 82.0198ZM72.9362 83.2218C72.9362 83.5137 73.2002 83.6147 73.963 83.6147C75.2735 83.6147 75.1864 83.0191 73.8599 82.907C73.1572 82.8476 72.9362 82.9229 72.9362 83.2218ZM27.2432 89.1441C26.0937 89.846 25.6938 91.2687 26.2916 92.5299C26.8984 93.8105 27.9596 94.3356 29.1934 93.9656C29.71 93.8105 30.2034 93.4985 30.2901 93.2723C30.5175 92.6792 30.2783 92.5573 29.545 92.892C28.6407 93.3046 28.0814 93.257 27.4567 92.7145C26.8131 92.1554 26.7568 91.1425 27.3214 90.2797C27.7572 89.6138 28.4023 89.4947 29.2148 89.9301C29.4932 90.0792 29.9101 90.1276 30.1412 90.0377C30.5011 89.8974 30.4601 89.7858 29.8561 89.2627C29.0033 88.5241 28.3102 88.4926 27.2432 89.1441ZM32.1126 88.8195C31.9034 89.029 31.89 93.2522 32.097 93.7921C32.2906 94.2978 32.6993 94.0586 32.6993 93.4396C32.6993 93.1807 32.8929 92.7749 33.1298 92.5377C33.536 92.131 33.6129 92.1683 34.5012 93.2008C35.2978 94.1271 35.4681 94.2266 35.613 93.8488C35.707 93.6032 35.6391 93.1318 35.4623 92.8009C35.1952 92.301 35.2058 92.0647 35.5242 91.4062C35.9932 90.4363 35.8526 89.8022 35.0235 89.1492C34.4066 88.6631 32.4858 88.4455 32.1126 88.8195ZM50.2765 89.5959C50.2456 90.6945 50.2484 93.1676 50.2806 93.6254C50.3218 94.2077 50.7948 93.9468 50.9656 93.2476C51.168 92.4196 51.4683 92.1864 52.3387 92.1811C53.1922 92.1761 53.8237 91.451 53.8237 90.4759C53.8237 89.3914 52.8411 88.6515 51.4006 88.6515C50.3044 88.6515 50.3029 88.6528 50.2765 89.5959ZM55.5003 88.8195C55.408 88.9117 55.3325 90.1016 55.3325 91.4638C55.3325 93.397 55.4085 93.9402 55.6783 93.9402C55.8685 93.9402 56.092 93.6002 56.175 93.1847C56.2809 92.6541 56.4725 92.4292 56.818 92.4292C57.0886 92.4292 57.5519 92.7691 57.8474 93.1847C58.1428 93.6002 58.5467 93.9402 58.7446 93.9402C59.1764 93.9402 59.1978 93.6647 58.8289 92.8538C58.6124 92.3778 58.642 92.0741 58.9674 91.4442C59.4593 90.4917 59.309 89.8563 58.4273 89.1618C57.7953 88.6639 55.8793 88.44 55.5003 88.8195ZM66.198 89.0464C65.4622 89.5627 65.7423 89.9843 66.6834 89.7773C67.4569 89.6073 68.2715 90.0268 68.0052 90.4585C67.9239 90.5899 67.5857 90.8007 67.2535 90.9274C66.4404 91.2369 66.4925 91.5696 67.4036 91.8877C67.8186 92.0325 68.1581 92.3249 68.1581 92.5372C68.1581 93.0429 67.0865 93.302 66.4364 92.9535C65.7288 92.5742 65.4629 93.0714 66.0348 93.7042C66.6298 94.3625 67.731 94.3192 68.5604 93.6045C69.1745 93.0756 69.2155 92.9396 68.9726 92.242C68.8242 91.8157 68.7636 91.0133 68.8378 90.459C68.962 89.5307 68.912 89.4196 68.2008 89.0515C67.2351 88.5513 66.9052 88.5505 66.198 89.0464ZM70.5471 88.9034C70.2697 89.3529 70.6832 89.6589 71.5679 89.6589C72.6457 89.6589 72.6583 89.9085 71.6788 91.8854C70.827 93.6048 70.7647 93.9402 71.2975 93.9402C71.7424 93.9402 74.0256 89.4849 73.8355 88.988C73.6811 88.5853 70.7893 88.5107 70.5471 88.9034ZM78.5663 88.8983C76.5676 89.7072 76.4159 92.7926 78.3247 93.8219C79.0713 94.2245 79.1825 94.2261 79.9221 93.843C80.9187 93.327 81.235 92.7435 81.235 91.4218C81.235 90.1198 80.9189 89.5169 79.9827 89.0318C79.5788 88.8228 79.2141 88.6588 79.1729 88.6674C79.1314 88.6762 78.8586 88.7802 78.5663 88.8983ZM83.599 89.5078C82.935 90.1726 82.7439 90.5721 82.7439 91.2949C82.7439 92.4153 83.3626 93.5456 84.1804 93.9188C85.1016 94.3389 85.4868 94.2543 86.284 93.4559C86.8853 92.8538 87.0191 92.507 87.0191 91.5505C87.0191 90.121 86.7241 89.5277 85.7667 89.0318C84.7412 88.5007 84.5662 88.5392 83.599 89.5078ZM89.2196 89.0479C88.4148 89.4844 88.3001 90.1626 89.0309 90.1626C89.469 90.1626 89.5339 90.3306 89.5339 91.4649C89.5339 92.3047 89.3911 92.9253 89.132 93.2119C88.5675 93.8367 88.8956 94.1921 90.0369 94.1921C91.1705 94.1921 91.5068 93.8372 90.9533 93.2247C90.6867 92.9298 90.5393 92.1625 90.4885 90.8053C90.4475 89.7123 90.3009 88.7852 90.1626 88.7455C90.0243 88.7054 89.5998 88.8417 89.2196 89.0479ZM101.877 89.0043C101.69 89.2303 101.611 90.1593 101.658 91.5857C101.716 93.3595 101.807 93.8143 102.105 93.8143C102.322 93.8143 102.534 93.5053 102.608 93.0794C102.792 92.029 103.217 92.0187 104.035 93.0449C105.075 94.3505 105.729 94.2331 105.101 92.8538C104.884 92.3765 104.915 92.0728 105.247 91.4309C106.015 89.9435 104.974 88.6515 103.007 88.6515C102.547 88.6515 102.038 88.8104 101.877 89.0043ZM107.741 89.5078C107.04 90.2097 106.886 90.5547 106.886 91.4218C106.886 92.2914 107.04 92.6337 107.752 93.3464C108.583 94.1792 108.67 94.2067 109.952 94.0427C110.686 93.9488 111.312 93.8531 111.342 93.8302C111.512 93.7007 111.705 90.8652 111.577 90.3714C111.395 89.6675 109.974 88.6515 109.172 88.6515C108.852 88.6515 108.215 89.0331 107.741 89.5078ZM113.537 88.9726C113.464 89.163 113.437 90.387 113.477 91.6925L113.55 94.0661L114.662 94.1457C117.027 94.3149 117.85 93.4197 115.545 93.1847C114.593 93.0877 114.288 92.95 114.219 92.5853C114.106 91.9877 114.579 91.6824 115.625 91.6774C116.075 91.6754 116.442 91.5734 116.442 91.4513C116.442 91.1964 115.577 90.9267 114.745 90.9216C114.31 90.9189 114.179 90.7725 114.179 90.2885C114.179 89.6997 114.261 89.6589 115.455 89.6589C116.534 89.6589 116.718 89.5909 116.647 89.2182C116.537 88.6389 113.749 88.4188 113.537 88.9726ZM124.075 88.9016C122.883 89.3834 123.041 90.286 124.238 89.8337C124.871 89.5944 125.061 89.6204 125.432 89.9976C125.853 90.4258 125.838 90.4744 125.118 91.0649C123.146 92.683 122.944 92.917 123.025 93.4879C123.101 94.0281 123.222 94.0661 124.867 94.0661C126.264 94.0661 126.627 93.9881 126.627 93.6884C126.627 93.4287 126.312 93.2857 125.621 93.2308C124.268 93.1235 124.038 92.819 124.903 92.2801C126.88 91.0483 127.248 90.0853 126.09 89.1736C125.382 88.615 124.934 88.5548 124.075 88.9016ZM129.194 89.1592C127.838 90.2278 127.695 92.7016 128.934 93.6775C129.76 94.3285 130.286 94.3268 131.12 93.67C132.109 92.8913 132.06 91.4427 131.025 90.8305C130.566 90.5592 130.062 90.4479 129.745 90.5486C129.328 90.6811 129.241 90.6207 129.317 90.25C129.393 89.8765 129.621 89.7941 130.472 89.8324C131.651 89.8856 131.812 89.6322 130.972 89.0436C130.242 88.5309 129.969 88.5488 129.194 89.1592ZM141.112 89.1099C140.969 89.3771 140.775 90.0805 140.68 90.6731L140.508 91.7502L141.523 91.5877C142.287 91.4654 142.619 91.5233 142.867 91.8225C143.382 92.4443 142.837 93.0588 141.77 93.0588C140.586 93.0588 140.4 93.3038 141.19 93.8219C142.397 94.6144 143.854 93.7821 143.854 92.2995C143.854 91.3996 143.151 90.6663 142.289 90.6663C142.01 90.6663 141.842 90.4774 141.842 90.1626C141.842 89.7528 142.01 89.6589 142.74 89.6589C143.46 89.6589 143.623 89.5712 143.556 89.2182C143.427 88.542 141.462 88.4548 141.112 89.1099ZM145.846 89.3877C145.442 89.7926 145.111 90.2938 145.111 90.5016C145.111 91.1256 146.38 92.4591 146.838 92.3168C147.391 92.1446 147.989 92.5475 147.752 92.9323C147.633 93.125 147.246 93.189 146.718 93.1031C145.68 92.9344 145.415 93.2686 146.169 93.7972C146.96 94.3525 147.551 94.2895 148.266 93.5738C148.794 93.0449 148.883 92.7205 148.883 91.3256C148.883 89.8644 148.815 89.6413 148.221 89.1736C147.319 88.4629 146.715 88.5173 145.846 89.3877ZM37.5843 89.2393C37.5136 89.4239 37.489 90.529 37.5295 91.6948C37.5881 93.3781 37.6809 93.8143 37.9804 93.8143C38.2786 93.8143 38.3395 93.5378 38.2716 92.4921C38.1798 91.0798 38.501 90.7511 39.0097 91.7366C39.4935 92.6734 40.0186 93.1587 40.3931 93.0149C40.5875 92.9401 40.7467 92.7737 40.7467 92.6452C40.7467 92.5165 40.9448 92.1068 41.1868 91.7346L41.6269 91.0579L41.7526 92.4339C41.8484 93.4831 41.983 93.8299 42.3184 93.8936C42.714 93.9687 42.7585 93.7194 42.7585 91.4228C42.7585 88.9323 42.7447 88.8704 42.2035 88.9487C41.8384 89.0018 41.4322 89.438 41.0148 90.2255C40.6662 90.8836 40.2548 91.4218 40.1009 91.4218C39.9467 91.4218 39.5127 90.8551 39.1364 90.1626C38.4688 88.9343 37.8438 88.5624 37.5843 89.2393ZM46.0781 91.1566C44.4688 93.4824 44.2699 93.9402 44.8687 93.9402C45.2248 93.9402 48.2911 89.6715 48.2911 89.1753C48.2911 88.4065 47.4768 89.1353 46.0781 91.1566ZM136.897 90.0936C135.727 91.487 135.222 92.3531 135.491 92.5067C135.595 92.5662 136.093 92.6893 136.596 92.78C137.212 92.8913 137.554 93.1081 137.641 93.4428C137.713 93.7163 137.927 93.9402 138.117 93.9402C138.531 93.9402 139.134 92.4717 138.882 92.0773C138.784 91.9247 138.646 91.1851 138.575 90.4343C138.505 89.6833 138.325 89.029 138.177 88.9799C138.029 88.9311 137.453 89.4322 136.897 90.0936ZM32.8364 90.1271C32.5718 90.9617 32.9445 91.456 33.7749 91.3724C34.724 91.2767 35.1978 90.624 34.7288 90.0578C34.2607 89.4932 33.0227 89.5388 32.8364 90.1271ZM50.9938 90.1268C50.8129 90.8196 51.2518 91.4218 51.9376 91.4218C52.6779 91.4218 53.1228 90.7332 52.7876 90.1062C52.4579 89.4891 51.1565 89.5043 50.9938 90.1268ZM56.224 90.1271C55.9595 90.9617 56.3322 91.456 57.1626 91.3724C58.1117 91.2767 58.5855 90.624 58.1164 90.0578C57.6484 89.4932 56.4104 89.5388 56.224 90.1271ZM78.382 90.1195C77.8549 90.7028 77.8426 92.2697 78.3609 92.789C78.849 93.2776 79.2365 93.2887 79.861 92.8313C80.5384 92.3355 80.5289 90.568 79.8461 90.0513C79.1872 89.5524 78.8814 89.5667 78.382 90.1195ZM84.1615 90.0382C83.5678 90.6328 83.4259 91.3941 83.7589 92.199C84.0999 93.0238 85.0636 93.4086 85.6231 92.9437C86.15 92.5055 86.3436 91.286 85.9923 90.6182C85.4571 89.6007 84.8046 89.3942 84.1615 90.0382ZM102.707 90.022C102.44 90.7191 102.731 91.2946 103.389 91.3717C104.257 91.4729 104.752 90.8758 104.38 90.1787C104.058 89.5763 102.919 89.4695 102.707 90.022ZM108.162 90.3225C107.555 91.0944 107.554 91.0999 107.917 92.1413C108.316 93.2882 109.182 93.4345 110.15 92.5191C111.037 91.6807 111.112 90.9788 110.397 90.2102C109.703 89.4637 108.801 89.509 108.162 90.3225ZM146.379 90.0246C145.979 90.5071 146.266 91.355 146.896 91.5555C147.845 91.857 148.537 90.6716 147.827 89.9611C147.418 89.5511 146.746 89.5806 146.379 90.0246ZM60.8651 90.7922C60.8651 90.9999 60.9783 91.1699 61.1166 91.1699C61.2549 91.1699 61.3681 90.9999 61.3681 90.7922C61.3681 90.5844 61.2549 90.4144 61.1166 90.4144C60.9783 90.4144 60.8651 90.5844 60.8651 90.7922ZM118.454 90.6514C118.454 90.7819 118.567 90.9584 118.706 91.044C118.844 91.1296 118.957 91.0229 118.957 90.807C118.957 90.5912 118.844 90.4144 118.706 90.4144C118.567 90.4144 118.454 90.521 118.454 90.6514ZM137.114 90.9685C136.694 91.3888 136.737 91.9255 137.189 91.9255C137.424 91.9255 137.567 91.6877 137.567 91.2959C137.567 90.5779 137.53 90.5517 137.114 90.9685ZM129.729 91.3394C128.806 91.5845 129.041 93.1847 130 93.1847C130.761 93.1847 131.151 92.5211 130.819 91.792C130.533 91.1626 130.479 91.1405 129.729 91.3394ZM95.318 91.8985C95.318 92.2483 96.0488 92.4448 96.721 92.2758C97.6741 92.0363 97.4349 91.6736 96.3239 91.6736C95.7706 91.6736 95.318 91.7749 95.318 91.8985ZM133.431 93.4151C133.35 93.5463 133.391 93.7198 133.522 93.8009C133.653 93.882 133.826 93.841 133.907 93.7098C133.988 93.5786 133.947 93.405 133.816 93.3239C133.685 93.2429 133.512 93.2839 133.431 93.4151ZM60.8651 93.6884C60.8651 93.8269 60.9783 93.9402 61.1166 93.9402C61.2549 93.9402 61.3681 93.8269 61.3681 93.6884C61.3681 93.5499 61.2549 93.4365 61.1166 93.4365C60.9783 93.4365 60.8651 93.5499 60.8651 93.6884ZM118.454 93.6884C118.454 93.8269 118.567 93.9402 118.706 93.9402C118.844 93.9402 118.957 93.8269 118.957 93.6884C118.957 93.5499 118.844 93.4365 118.706 93.4365C118.567 93.4365 118.454 93.5499 118.454 93.6884Z" fill="white"/>
</svg>
