<svg width="48" height="27" viewBox="0 0 48 27" fill="none" xmlns="http://www.w3.org/2000/svg">
<path fill-rule="evenodd" clip-rule="evenodd" d="M20.1924 0.968808C19.9542 1.15027 18.569 2.53323 18.26 2.89822C18.076 3.11553 18.0399 3.21465 18.0399 3.50278C18.0399 3.72916 18.0901 3.93466 18.1862 4.10198L18.3325 4.35659L18.1537 4.62041C17.8227 5.10882 17.8617 5.55286 18.279 6.04952C18.3738 6.16237 18.4514 6.32 18.4514 6.39974C18.4514 6.83966 19.0627 7.27443 19.6812 7.27443H20.0446L19.9985 7.64478C19.9424 8.09418 20.0608 8.42634 20.3506 8.63301C20.5145 8.74991 20.7011 8.78446 21.3849 8.8245L22.2193 8.8734L22.2921 9.09415C22.3946 9.40529 22.8058 9.86376 23.1317 10.0302C23.3085 10.1205 23.6405 10.1933 24.0549 10.2326C25.0247 10.3245 25.2342 10.5367 25.3042 11.4985L25.3443 12.048H26.0214H26.6985L26.7273 11.1916C26.7463 10.6261 26.7843 10.3174 26.8389 10.2827C26.8845 10.2537 27.076 10.2281 27.2646 10.2259C28.4552 10.2118 29.2278 9.20735 28.9539 8.02996L28.882 7.72088L29.3522 7.24009C29.8703 6.71026 30.0424 6.42797 30.0424 6.10749C30.0424 5.89216 29.8276 5.39626 29.7003 5.31741C29.6599 5.29241 29.6485 5.16191 29.6732 5.00696C29.7435 4.56731 29.6482 4.25871 29.3514 3.96454C29.1903 3.80478 29.0822 3.6328 29.0822 3.53629C29.0822 3.44762 28.9587 3.18992 28.8078 2.96367C28.6569 2.73736 28.5333 2.49435 28.5332 2.42354C28.5328 2.21405 28.2816 1.86356 28.0436 1.74027C27.9137 1.67303 27.593 1.61238 27.269 1.59377C26.738 1.56327 26.7081 1.55249 26.5184 1.32452C26.2637 1.0184 26.0034 0.886799 25.6529 0.886799C25.3021 0.886799 25.0578 1.01139 24.6415 1.40241C24.4622 1.57083 24.293 1.70922 24.2654 1.70984C24.2379 1.71046 24.1548 1.59212 24.0808 1.44678C23.9307 1.15213 23.7269 0.993879 23.3813 0.903284C23.0246 0.809874 22.6812 0.93378 22.25 1.31168L21.8616 1.65201L21.7158 1.39163C21.5007 1.00768 21.1809 0.818115 20.7481 0.818115C20.4856 0.818115 20.3376 0.858227 20.1924 0.968808ZM20.3528 1.30413C19.8934 1.6834 18.4875 3.15283 18.4108 3.33402C18.2533 3.70594 18.5583 4.21208 18.9152 4.17094C19.0892 4.15088 19.1056 4.12155 19.1394 3.77154C19.1844 3.30442 19.2677 3.15111 19.7261 2.6921C20.098 2.31969 20.2761 2.24702 20.3492 2.43776C20.3769 2.51029 20.2645 2.67589 20.0113 2.93572C19.8026 3.14988 19.5816 3.4253 19.5202 3.5477C19.2998 3.98762 19.5967 4.3897 20.142 4.3897C20.4387 4.3897 20.4548 4.37706 21.5019 3.31458C22.4084 2.3949 22.5768 2.25217 22.6669 2.32711C22.7249 2.37526 22.7714 2.4495 22.7704 2.49209C22.7693 2.53474 22.4313 2.90646 22.0191 3.31829C21.2493 4.08735 21.1423 4.26854 21.2275 4.65729C21.2886 4.93574 21.4829 5.08739 21.8264 5.12496C22.089 5.1536 22.1523 5.12984 22.4138 4.904C22.6979 4.6588 22.9095 4.62315 22.9095 4.82048C22.9095 4.92626 22.5346 5.29839 22.3139 5.41172C21.9047 5.62182 21.1897 5.37264 20.9757 4.94535C20.8021 4.59863 20.7703 4.5851 20.4155 4.70619C20.1154 4.8086 20.0665 4.8086 19.7997 4.7066C19.6403 4.64561 19.3358 4.59575 19.1231 4.59575C18.8087 4.59575 18.6974 4.62851 18.5289 4.77048C18.2675 4.99068 18.2155 5.15456 18.3128 5.44991C18.4303 5.80658 18.5453 5.8629 19.2331 5.90075C19.8162 5.93282 19.8588 5.94526 19.8794 6.08963C19.9001 6.23607 19.8782 6.24417 19.4638 6.24417C19.2073 6.24417 18.9745 6.28208 18.9011 6.33579C18.7825 6.42268 18.7865 6.4393 18.978 6.65387C19.1748 6.87442 19.196 6.8808 19.7929 6.899C20.13 6.90924 20.4557 6.89083 20.5168 6.85814C20.5778 6.82537 20.6472 6.67722 20.6709 6.52887C20.7174 6.23758 21.0648 5.86448 21.3504 5.79896C21.4346 5.77966 21.9355 5.75603 22.4637 5.74642L23.4239 5.72904L23.4088 5.55733C23.4005 5.46289 23.3741 5.27078 23.3501 5.13039C23.2872 4.76203 23.5143 4.32321 23.8721 4.12183C24.1248 3.97965 24.2334 3.96646 25.1237 3.9701C26.1996 3.9745 26.4658 3.919 26.8106 3.61858C27.0144 3.44103 27.0546 3.4288 27.1431 3.51734C27.2892 3.6637 27.1645 3.85375 26.769 4.08742C26.4471 4.27753 26.423 4.28083 25.3321 4.28372C24.3154 4.28639 24.2065 4.29869 24.029 4.4307C23.7148 4.6645 23.636 4.85902 23.7258 5.17956C23.8583 5.65252 24.0371 5.72718 25.0699 5.74078C25.9156 5.75198 25.9626 5.75995 25.9835 5.89532C26.0002 6.00432 25.9677 6.03908 25.8463 6.04217C25.7588 6.04444 24.7904 6.04354 23.6942 6.04018C22.0786 6.0353 21.6552 6.05337 21.4581 6.13585C20.9616 6.34356 20.8271 6.91673 21.1895 7.27972L21.39 7.48049H22.8675C24.2474 7.48049 24.3496 7.48907 24.4145 7.61064C24.5092 7.78771 24.3552 7.9088 24.0615 7.88833C23.6463 7.85949 23.6037 7.88126 23.5287 8.15998C23.4447 8.47242 23.4827 8.61295 23.7211 8.87134L23.8953 9.06022H25.6367H27.3781L27.5786 8.85946C27.6888 8.74901 27.779 8.62614 27.779 8.5863C27.779 8.50786 27.2622 8.23601 27.1131 8.23601C27.0628 8.23601 26.9066 8.31095 26.766 8.40257C25.9857 8.9109 25.0702 8.31541 25.2088 7.38982L25.2539 7.08837L24.9905 7.04482C24.8456 7.02085 24.1307 7.00086 23.4019 7.00045L22.0769 6.9997L22.0988 6.84516L22.1207 6.69062L24.5788 6.65628L27.0369 6.62193L27.1688 6.45874C27.4651 6.09196 27.4051 5.62327 27.0294 5.36968C26.8145 5.22462 26.7263 5.21391 25.7497 5.21391C24.7371 5.21391 24.505 5.1683 24.6712 5.00188C24.7057 4.9674 25.2371 4.93745 25.8521 4.93532L26.9705 4.93155L27.3919 4.50543C27.9295 3.96186 28.2696 3.70285 28.4458 3.70285C28.644 3.70285 28.7654 3.53677 28.6818 3.38024C28.513 3.06443 28.3315 2.9827 27.7207 2.94733C27.1699 2.91546 27.1259 2.90193 27.1055 2.75844C27.0845 2.61002 27.1039 2.60391 27.5971 2.60391C28.162 2.60391 28.2322 2.55225 28.0794 2.24901C27.9858 2.06302 27.9087 2.03424 27.2844 1.95202C26.8878 1.89975 26.7158 1.98376 26.6185 2.27711C26.5152 2.58866 25.9896 3.15338 25.8029 3.15338C25.5624 3.15338 25.6235 2.9645 25.9958 2.55651C26.2818 2.24311 26.3387 2.1372 26.3387 1.91878C26.3387 1.52742 26.0398 1.23022 25.646 1.23022C25.3535 1.23022 25.3397 1.24176 23.8302 2.74794C22.3483 4.22664 22.1237 4.39924 22.0338 4.1287C22.0175 4.07952 22.3292 3.72408 22.7266 3.33883C23.9555 2.14729 24.0615 1.93458 23.6568 1.47302C23.4739 1.26443 23.4016 1.23022 23.1433 1.23022C22.8476 1.23022 22.8251 1.24753 21.803 2.26048C20.8218 3.23305 20.509 3.45429 20.509 3.17577C20.509 3.11251 20.725 2.83764 20.9891 2.56489C21.487 2.05065 21.5426 1.91329 21.4023 1.54383C21.3275 1.34671 20.9596 1.09347 20.7475 1.09313C20.6712 1.09299 20.4936 1.18791 20.3528 1.30413ZM27.8628 4.55591L27.3336 5.06562L27.5004 5.29152C27.7401 5.61619 27.7742 6.14623 27.5779 6.49604C27.3704 6.86576 27.1055 6.9997 26.5818 6.9997C25.9008 6.9997 25.7253 7.0556 25.6036 7.31125C25.4744 7.58248 25.5261 7.84053 25.7554 8.07021C25.9287 8.2437 26.2796 8.2922 26.4759 8.16973C26.5325 8.13443 26.9539 7.72864 27.4124 7.26798C28.0006 6.67688 28.2781 6.4428 28.3554 6.47254C28.5491 6.54693 28.4753 6.68505 27.9476 7.23638C27.3452 7.86553 27.3198 7.99775 27.8022 7.99108C28.1281 7.98648 28.1338 7.98236 28.8763 7.21207C29.3428 6.72812 29.6389 6.36368 29.666 6.24032C29.7195 5.99636 29.5914 5.7197 29.3379 5.53185C29.1677 5.40567 29.1247 5.40038 28.9264 5.48109C28.5053 5.65252 28.3963 5.6561 28.3963 5.4984C28.3963 5.33534 28.6605 5.17359 29.0628 5.09027C29.2617 5.04913 29.3276 4.99954 29.3451 4.8779C29.4077 4.4421 29.0778 4.04627 28.652 4.04627C28.4218 4.04627 28.331 4.10493 27.8628 4.55591ZM20.41 7.4958C20.2357 7.74492 20.2743 8.0803 20.5037 8.30998C20.6989 8.50546 20.7225 8.51075 21.3988 8.51075H22.0934L22.1975 8.26129C22.326 7.95331 22.255 7.86168 21.898 7.87473C21.4991 7.88929 21.1727 7.77693 20.9558 7.55027C20.7203 7.3041 20.5555 7.28769 20.41 7.4958ZM22.6533 8.00839C22.6261 8.07694 22.6033 8.31843 22.6027 8.54509C22.6013 9.04573 22.7577 9.34877 23.1657 9.63593C23.4062 9.80524 23.5317 9.84034 23.9855 9.86527C25.1265 9.92805 25.6529 10.3882 25.6529 11.3228C25.6529 11.7019 25.6665 11.7397 25.8174 11.7776C25.9078 11.8004 26.0545 11.8087 26.1431 11.7961C26.3005 11.7738 26.3049 11.7536 26.3246 10.9834C26.3423 10.2886 26.3266 10.1546 26.1943 9.87042C25.9988 9.45042 25.8545 9.40364 24.7555 9.40364C24.2732 9.40364 23.8024 9.37466 23.7094 9.33922C23.6164 9.30378 23.4523 9.1594 23.3448 9.01833C23.1801 8.8019 23.1494 8.69647 23.1485 8.34433L23.1474 7.92693L22.9251 7.90537C22.7612 7.8895 22.6898 7.91656 22.6533 8.00839ZM28.3054 8.26534C28.2045 8.35896 28.122 8.48685 28.122 8.54963C28.122 8.76454 27.8253 9.19258 27.6031 9.29814C27.4796 9.35687 27.1973 9.40364 26.9668 9.40364C26.739 9.40364 26.535 9.43222 26.5134 9.46718C26.4918 9.50214 26.5104 9.61031 26.5546 9.70757C26.6283 9.86946 26.6704 9.88443 27.0528 9.88402C27.2825 9.88382 27.5883 9.85085 27.7325 9.81081C28.041 9.72502 28.4839 9.34602 28.598 9.07005C28.6936 8.83892 28.668 8.15421 28.5626 8.11946C28.5219 8.10606 28.4062 8.17172 28.3054 8.26534ZM16.8876 15.8737C16.8279 15.9335 16.8053 16.4404 16.8053 17.7233C16.8053 19.2646 16.8196 19.5047 16.9171 19.6023C16.9785 19.6638 17.0737 19.6969 17.1285 19.6759C17.1833 19.6548 17.241 19.6376 17.2568 19.6376C17.2726 19.6376 17.2854 19.2713 17.2854 18.8236C17.2854 18.0925 17.3013 17.9857 17.4407 17.7761C17.6409 17.475 18.0375 17.2758 18.3151 17.3369C18.6648 17.4138 18.7531 17.6814 18.7652 18.7005C18.776 19.6078 18.8144 19.7325 19.0687 19.6881C19.1542 19.6732 19.1747 19.4839 19.1903 18.5676C19.2082 17.5157 19.2019 17.4541 19.0519 17.2313C18.9603 17.0951 18.8043 16.9717 18.6779 16.9354C18.36 16.8441 17.8668 16.9402 17.6301 17.1397C17.5175 17.2345 17.3934 17.2924 17.3542 17.2681C17.3123 17.2421 17.2864 16.9604 17.2913 16.5812C17.2958 16.2276 17.2791 15.9052 17.2542 15.8648C17.1935 15.7665 16.9898 15.7714 16.8876 15.8737ZM0.0476262 15.9745C0.0224553 15.9996 0.0018796 16.8176 0.0018796 17.7921C0.0018796 19.9105 -0.0935228 19.7418 1.07504 19.6901C1.73319 19.6611 1.90348 19.6287 2.2115 19.4744C2.86382 19.1477 3.21237 18.4409 3.13425 17.6034C3.08418 17.0663 2.96347 16.7744 2.64599 16.4224C2.28996 16.0278 1.94491 15.9286 0.92703 15.9286C0.468467 15.9286 0.0727285 15.9493 0.0476262 15.9745ZM7.57723 16.0157C7.55891 16.0635 7.55212 16.887 7.5622 17.8456C7.5788 19.4187 7.59225 19.5958 7.70061 19.6642C7.78806 19.7193 7.85321 19.7194 7.94066 19.6642C8.04594 19.5978 8.06487 19.4291 8.09498 18.2909L8.12927 16.9933L8.36178 17.4054C9.43356 19.3054 9.42053 19.2957 9.85776 18.5215C10.0124 18.2476 10.2088 17.8999 10.2942 17.7488C10.3795 17.5977 10.4925 17.3896 10.5453 17.2865C10.7411 16.904 10.7698 17.0168 10.7708 18.174C10.7713 18.809 10.79 19.3971 10.8125 19.4808C10.8575 19.6489 11.0901 19.7564 11.1907 19.6557C11.2266 19.6197 11.2614 18.7906 11.2696 17.7771L11.2842 15.963H11.0173C10.7516 15.963 10.7485 15.9662 10.3819 16.6155C10.1793 16.9744 9.90454 17.4786 9.77128 17.7361C9.61106 18.0457 9.49385 18.1968 9.42492 18.1825C9.32794 18.1624 9.23041 18.0008 8.54174 16.7185C8.11795 15.9295 8.1172 15.9286 7.85122 15.9286C7.71885 15.9286 7.59554 15.9678 7.57723 16.0157ZM29.7397 15.9877C29.6952 16.0597 29.7423 16.2068 29.9631 16.6864C30.0409 16.8551 30.1696 17.1632 30.2491 17.371C30.3286 17.5788 30.4814 17.9497 30.5888 18.1952C30.6961 18.4408 30.8717 18.8532 30.979 19.1117C31.0862 19.3701 31.2292 19.6114 31.2967 19.6478C31.4543 19.7328 31.6628 19.6662 31.7121 19.5151C31.8032 19.2368 32.2881 18.1853 32.3575 18.1158C32.4131 18.0602 32.4623 18.109 32.5411 18.2976C32.6002 18.4394 32.6486 18.5662 32.6486 18.5793C32.6486 18.5925 32.7258 18.7722 32.8201 18.9786C32.9144 19.1851 32.9915 19.3862 32.9915 19.4256C32.9915 19.4649 33.0666 19.5463 33.1584 19.6066C33.3736 19.7478 33.557 19.657 33.6801 19.3483C33.7297 19.2241 33.8396 18.9674 33.9243 18.7779C34.009 18.5883 34.1441 18.2662 34.2244 18.0622C34.3047 17.8581 34.4278 17.565 34.4979 17.4109C34.698 16.9711 35.0491 16.0695 35.0491 15.9955C35.0491 15.9587 34.9403 15.9286 34.8073 15.9286C34.6074 15.9286 34.5527 15.9613 34.4911 16.1175C34.4501 16.2214 34.2845 16.6464 34.1232 17.0619C33.5233 18.6075 33.374 18.9525 33.3144 18.9326C33.2476 18.9103 32.7238 17.7326 32.7197 17.5956C32.7183 17.5492 32.8422 17.1969 32.995 16.8128C33.2816 16.0924 33.2956 15.9286 33.0707 15.9286C32.8913 15.9286 32.8018 16.0541 32.6199 16.5599C32.5343 16.7983 32.4254 16.9933 32.3778 16.9933C32.3302 16.9933 32.2169 16.7948 32.1259 16.5524C31.9317 16.0352 31.8551 15.9286 31.6779 15.9286C31.4563 15.9286 31.4697 16.078 31.7549 16.7888C31.9062 17.1657 32.0303 17.5227 32.0307 17.5822C32.0317 17.7449 31.5203 18.8937 31.4452 18.8975C31.3636 18.9016 31.3715 18.9194 30.7358 17.3023C30.2173 15.9833 30.2061 15.9626 29.9951 15.942C29.8773 15.9304 29.7623 15.951 29.7397 15.9877ZM15.1338 16.1023C15.11 16.164 15.0907 16.3633 15.0907 16.545C15.0907 16.8401 15.0724 16.8799 14.9192 16.9185C14.8077 16.9465 14.7478 17.0096 14.7478 17.0993C14.7478 17.183 14.815 17.2626 14.9192 17.3023C15.0905 17.3675 15.0907 17.3687 15.0907 18.3C15.0907 19.3754 15.1549 19.5802 15.5309 19.7044C15.7037 19.7616 15.8421 19.7626 16.0436 19.7083C16.3605 19.6228 16.4206 19.5556 16.3578 19.3572C16.3198 19.2373 16.2743 19.2216 16.0619 19.2556C15.638 19.3232 15.608 19.2644 15.5813 18.3147C15.5552 17.3877 15.5746 17.3335 15.9474 17.2912C16.0827 17.2759 16.161 17.224 16.1771 17.1389C16.2077 16.9774 16.0637 16.8778 15.8665 16.9242C15.6716 16.97 15.6142 16.8698 15.5716 16.4094C15.5395 16.0635 15.5214 16.0299 15.3567 16.0108C15.2395 15.9972 15.1618 16.0291 15.1338 16.1023ZM0.550564 17.7831V19.2255H1.09479C1.71295 19.2255 1.94237 19.158 2.21939 18.8948C2.50628 18.6223 2.62706 18.2909 2.62452 17.7831C2.61965 16.7946 2.12961 16.3408 1.06715 16.3408H0.550564V17.7831ZM3.81627 16.979C3.71593 17.0525 3.70454 17.2137 3.721 18.3255C3.7376 19.4412 3.75378 19.5973 3.85982 19.6642C3.94706 19.7192 4.01249 19.7193 4.09925 19.6645C4.20151 19.5999 4.22037 19.4622 4.23073 18.7045L4.2428 17.82L4.4537 17.6313C4.56975 17.5275 4.74979 17.4222 4.85376 17.3973C4.95781 17.3725 5.08153 17.3216 5.12865 17.2845C5.24573 17.1921 5.23681 16.9632 5.11432 16.9161C4.97173 16.8614 4.56694 17.0086 4.42332 17.1676C4.26838 17.339 4.1856 17.3389 4.1856 17.1674C4.1856 16.9827 3.96489 16.8702 3.81627 16.979ZM12.6902 16.9305C12.2333 17.0982 12.0729 17.1981 12.0729 17.3149C12.0729 17.5037 12.2419 17.5381 12.5545 17.4128C12.9967 17.2356 13.351 17.2666 13.5871 17.5031C13.7049 17.6211 13.7876 17.7768 13.7876 17.8809V18.0579H13.1669C12.4882 18.0579 12.2513 18.1368 12.0104 18.4435C11.8412 18.6589 11.8272 18.9486 11.9712 19.2525C12.1972 19.7295 12.8559 19.8709 13.4685 19.574L13.7958 19.4153L13.9571 19.567C14.0457 19.6504 14.175 19.7079 14.2444 19.6946C14.3888 19.6671 14.4541 19.3847 14.3421 19.2725C14.2976 19.228 14.2676 18.8928 14.2675 18.4391C14.2675 17.6036 14.1803 17.3211 13.8472 17.0768C13.6667 16.9442 12.9124 16.8489 12.6902 16.9305ZM20.7399 16.9336C20.5443 16.9774 20.0483 17.4084 19.9323 17.6355C19.4926 18.4963 20.0177 19.5601 20.9708 19.7391C21.435 19.8263 22.3608 19.3971 22.3608 19.0947C22.3608 18.9449 22.016 18.9287 21.8598 19.0712C21.3721 19.5155 20.7406 19.4333 20.4173 18.8832C20.1916 18.4993 20.2488 18.4755 21.4492 18.4546L22.5322 18.4356L22.5211 18.1088C22.5078 17.7208 22.3498 17.4256 22.0063 17.1476C21.7973 16.9784 21.6814 16.9404 21.3205 16.9224C21.0816 16.9106 20.8203 16.9156 20.7399 16.9336ZM23.1608 16.9387C23.044 16.9689 23.0365 17.0501 23.0579 18.0469C23.0845 19.2898 23.1525 19.4865 23.6205 19.674C23.9533 19.8074 24.4159 19.721 24.77 19.4594L24.9965 19.2921L25.0843 19.4602C25.1822 19.6472 25.3695 19.7318 25.5403 19.6662C25.664 19.6186 25.693 19.3958 25.5843 19.3285C25.5431 19.303 25.5157 18.8364 25.5157 18.1592C25.5157 17.1168 25.5058 17.0271 25.3835 16.9616C25.0947 16.8068 25.0506 16.9146 25.0253 17.8394C25.0049 18.5801 24.9808 18.7378 24.8642 18.8935C24.6773 19.1429 24.4061 19.2942 24.1461 19.2942C23.6284 19.2942 23.5267 19.0568 23.5267 17.8489C23.5267 17.1141 23.5093 16.9669 23.4182 16.9319C23.3586 16.909 23.3046 16.8938 23.2982 16.8982C23.2919 16.9026 23.23 16.9208 23.1608 16.9387ZM26.6422 17.0204C26.4522 17.1068 26.3331 17.2188 26.2706 17.3698C26.1573 17.6439 26.1564 17.7143 26.2636 17.9734C26.3545 18.1932 26.5779 18.3189 27.3187 18.5674C27.7122 18.6994 27.7464 18.7271 27.7659 18.9297C27.8081 19.3662 27.1626 19.4875 26.5364 19.1607C26.319 19.0471 26.2346 19.0321 26.1602 19.094C25.9375 19.2791 26.1558 19.4991 26.7379 19.6759C27.1245 19.7934 27.2516 19.7969 27.6022 19.6994C28.0191 19.5835 28.2591 19.3015 28.2591 18.9278C28.2591 18.6686 28.2259 18.5915 28.0502 18.4435C27.9353 18.3467 27.6418 18.2057 27.3979 18.1303C26.7587 17.9326 26.6817 17.8799 26.6817 17.6398C26.6817 17.4657 26.7226 17.4153 26.9389 17.3236C27.1814 17.2207 27.2207 17.2231 27.6273 17.3639C28.0885 17.5236 28.1906 17.5111 28.1906 17.2949C28.1906 16.954 27.1815 16.7751 26.6422 17.0204ZM35.6937 16.9813C35.5767 17.0257 35.407 17.1132 35.3165 17.176C35.1616 17.2834 35.1588 17.297 35.2681 17.41C35.3774 17.5229 35.402 17.5232 35.6819 17.4162C36.2341 17.205 36.6847 17.2935 36.8683 17.649C37.0528 18.0063 36.9816 18.0579 36.3029 18.0581C35.8101 18.0583 35.6573 18.0849 35.4619 18.2042C35.1226 18.4113 35.0538 18.5287 35.0513 18.9045C35.0495 19.1786 35.0828 19.2698 35.2434 19.4306C35.5529 19.7406 35.9151 19.8174 36.3784 19.6715C36.5895 19.605 36.7973 19.5081 36.8404 19.4563C36.905 19.3782 36.9461 19.3916 37.0779 19.5341C37.3534 19.8318 37.7325 19.681 37.529 19.3547C37.4812 19.2781 37.4496 18.9229 37.4496 18.4631C37.4496 17.7986 37.4295 17.6631 37.2958 17.4248C37.0966 17.0698 36.7452 16.8886 36.2692 16.8954C36.0697 16.8983 35.8107 16.9369 35.6937 16.9813ZM38.5813 16.9957C38.4681 17.0533 38.3215 17.1647 38.2555 17.2433C38.1371 17.3843 38.0944 17.8023 38.1765 18.0165C38.2355 18.1704 38.6141 18.3882 39.0383 18.5121C39.726 18.713 39.8857 18.9421 39.5322 19.2205C39.2864 19.4142 38.9157 19.4022 38.5127 19.1877C38.1449 18.9918 37.9776 19.01 38.0106 19.2424C38.044 19.4778 38.6025 19.7296 39.0872 19.7276C39.7848 19.7248 40.193 19.4174 40.193 18.8948C40.193 18.5555 39.9716 18.3613 39.3521 18.1574C39.0413 18.055 38.733 17.9242 38.667 17.8666C38.2276 17.483 39.04 17.0931 39.6469 17.3964C39.9301 17.5378 40.03 17.5376 40.0845 17.3954C40.2294 17.0172 39.1194 16.722 38.5813 16.9957ZM41.284 17.0501C40.8341 17.288 40.5694 17.7511 40.5733 18.2929C40.5767 18.7456 40.7384 19.1433 41.0265 19.4074C41.1947 19.5616 41.747 19.775 41.9779 19.775C42.1715 19.775 42.7924 19.5277 42.9441 19.3902C43.1965 19.1615 43.0083 18.8131 42.7385 19.0095C42.197 19.4038 41.8953 19.4594 41.525 19.2333C41.2949 19.0929 41.0345 18.6301 41.1311 18.5334C41.1638 18.5006 41.6683 18.4652 42.2522 18.4546L43.3137 18.4356L43.3375 18.2669C43.3727 18.0171 43.2319 17.6126 43.0232 17.3644C42.6257 16.8913 41.8496 16.751 41.284 17.0501ZM44.8227 16.9945C44.7096 17.0557 44.5683 17.15 44.5086 17.204C44.3538 17.3444 44.3082 17.3266 44.3082 17.1263C44.3082 16.969 44.2844 16.9525 44.0853 16.9718L43.8624 16.9933L43.8436 18.255C43.8248 19.5215 43.8539 19.7063 44.0716 19.7063C44.2986 19.7063 44.3677 19.5079 44.3647 18.8646C44.3602 17.8894 44.3632 17.872 44.582 17.6225C44.9269 17.2291 45.4404 17.2326 45.6046 17.6295C45.6506 17.7408 45.6954 18.2124 45.7047 18.6847C45.714 19.1543 45.7449 19.5762 45.7734 19.6223C45.8499 19.7463 46.0775 19.7242 46.1469 19.5861C46.1801 19.52 46.1941 19.265 46.178 19.0194C46.162 18.7739 46.169 18.4104 46.1937 18.2117C46.266 17.63 46.6851 17.241 47.1333 17.3396C47.4544 17.4102 47.5317 17.6596 47.5317 18.6251C47.5317 19.5281 47.5948 19.7438 47.8448 19.6957C47.9681 19.672 47.9789 19.5956 47.9964 18.6207C48.0178 17.4362 47.9512 17.175 47.5787 16.9821C47.2621 16.8181 46.7521 16.9009 46.4166 17.1709L46.1487 17.3866L45.9617 17.1624C45.8009 16.9694 45.7226 16.9343 45.4016 16.9106C45.1439 16.8917 44.9647 16.9176 44.8227 16.9945ZM20.7674 17.3751C20.5181 17.5069 20.3032 17.8054 20.3032 18.0201C20.3032 18.1107 20.4353 18.1265 21.1948 18.1265C22.1757 18.1265 22.1919 18.118 21.9821 17.7117C21.8684 17.4915 21.4303 17.2319 21.1804 17.2367C21.094 17.2384 20.9082 17.3006 20.7674 17.3751ZM41.5681 17.3571C41.3082 17.4855 41.0483 17.864 41.1099 18.0245C41.1693 18.1796 42.8679 18.1754 42.8679 18.0201C42.8679 17.8 42.65 17.505 42.3891 17.3717C42.0639 17.2056 41.8815 17.2023 41.5681 17.3571ZM12.6216 18.4563C12.4215 18.554 12.3781 18.6149 12.3607 18.8229C12.3439 19.0256 12.3745 19.0996 12.5243 19.2176C12.9755 19.573 13.7876 19.217 13.7876 18.6639C13.7876 18.5057 13.7473 18.4652 13.5304 18.4049C13.1704 18.3048 12.901 18.32 12.6216 18.4563ZM35.8201 18.4352C35.5933 18.534 35.4219 18.8264 35.5047 18.9737C35.5293 19.0177 35.6121 19.1233 35.6885 19.2083C35.8646 19.4041 36.2985 19.4161 36.5978 19.2334C36.8257 19.0942 37.01 18.7435 36.9448 18.5732C36.854 18.3363 36.2248 18.2591 35.8201 18.4352ZM5.05753 19.1308C4.9683 19.2201 5.00691 19.5507 5.11727 19.6424C5.2842 19.7811 5.45443 19.6363 5.45443 19.3554C5.45443 19.1571 5.42851 19.1194 5.28043 19.1021C5.18469 19.0909 5.08435 19.1039 5.05753 19.1308ZM37.8926 22.2522C37.8295 22.3545 37.9027 22.41 38.034 22.3596C38.0946 22.3363 38.125 22.2861 38.1014 22.2481C38.0459 22.158 37.9495 22.1599 37.8926 22.2522ZM11.3401 22.6234C10.8942 22.8165 10.7748 23.4022 11.1057 23.7731C11.6256 24.3559 12.5114 23.7316 12.2074 22.9967C12.058 22.6353 11.6842 22.4745 11.3401 22.6234ZM24.8642 22.5768C24.7887 22.592 24.6421 22.6844 24.5384 22.7822C24.3848 22.9271 24.3498 23.0199 24.3498 23.2814C24.3498 23.7837 24.74 24.1007 25.205 23.9761C25.4116 23.9208 25.5798 23.7313 25.4966 23.6479C25.4698 23.6211 25.3376 23.6582 25.2026 23.7304L24.9574 23.8617L24.7565 23.6374C24.5113 23.3638 24.5028 23.1871 24.7239 22.9657C24.9186 22.7706 24.9984 22.7606 25.2616 22.898C25.4325 22.9873 25.4579 22.9863 25.4951 22.8891C25.5595 22.7212 25.1512 22.519 24.8642 22.5768ZM27.6076 22.589L27.3332 22.6254V23.2779V23.9304L27.6076 23.9648C27.9381 24.0064 28.2591 23.9705 28.2591 23.892C28.2591 23.8606 28.1125 23.8254 27.9334 23.8139C27.635 23.7948 27.6057 23.7771 27.5859 23.6041C27.5653 23.4255 27.5792 23.4152 27.8431 23.4152C28.222 23.4152 28.222 23.2428 27.843 23.182C27.6042 23.1438 27.5672 23.1154 27.5858 22.9844C27.6037 22.8584 27.662 22.8254 27.9162 22.7971C28.086 22.7782 28.2165 22.7318 28.2064 22.694C28.1793 22.5931 27.9201 22.5477 27.6076 22.589ZM1.76371 22.6354C1.73771 22.6614 1.71652 22.971 1.71652 23.3237C1.71652 23.8477 1.73531 23.9647 1.8194 23.9647C1.89841 23.9647 1.92228 23.8769 1.92228 23.5869C1.92228 23.3792 1.94546 23.2088 1.97371 23.2082C2.00197 23.2077 2.18174 23.3831 2.37316 23.598C2.84372 24.1262 2.93042 24.0862 2.94249 23.3349C2.94756 23.0202 2.92417 22.7201 2.8905 22.6681C2.77644 22.4918 2.67672 22.666 2.67672 23.0415C2.67672 23.2471 2.64805 23.4152 2.613 23.4152C2.57795 23.4152 2.41589 23.2399 2.25293 23.0257C1.95362 22.6322 1.84964 22.5493 1.76371 22.6354ZM3.43116 23.2686V23.9525L3.84391 23.9758C4.28985 24.0009 4.39136 23.9858 4.39136 23.894C4.39136 23.8615 4.24479 23.8254 4.06557 23.8139C3.76929 23.7949 3.73787 23.7763 3.71853 23.6085C3.69905 23.4399 3.7197 23.4222 3.95858 23.4025C4.26084 23.3775 4.3347 23.1818 4.04843 23.1645C3.95412 23.1587 3.83622 23.151 3.78643 23.1473C3.73314 23.1432 3.70495 23.077 3.71785 22.986C3.73602 22.8581 3.79322 22.8254 4.04843 22.7971C4.51323 22.7454 4.419 22.6281 3.89411 22.605L3.43116 22.5848V23.2686ZM4.76405 22.8314C4.66508 23.3598 4.86322 23.8677 5.20855 23.9706C5.74695 24.1312 6.05826 23.7805 6.02349 23.0525C6.00716 22.7114 5.97925 22.6222 5.88309 22.6039C5.7796 22.5841 5.76307 22.6377 5.76307 22.9936C5.76307 23.4947 5.68145 23.7317 5.48776 23.7933C5.22316 23.8774 5.07721 23.6587 5.07721 23.1779C5.07721 22.6073 4.85259 22.3587 4.76405 22.8314ZM6.50256 22.6769C6.44831 22.8341 6.43754 23.4191 6.48383 23.6937C6.53664 24.0068 6.7031 24.0611 6.73589 23.7758C6.76812 23.4951 7.0175 23.4832 7.17765 23.7547C7.24575 23.8702 7.35659 23.9647 7.42394 23.9647C7.57338 23.9647 7.57448 23.9438 7.43841 23.6803C7.34033 23.4904 7.34033 23.4606 7.43841 23.352C7.59993 23.1733 7.57626 22.8259 7.39383 22.698C7.20673 22.5667 6.54597 22.551 6.50256 22.6769ZM8.18421 22.7127C7.85959 22.9682 7.82516 23.546 8.11864 23.8125C8.59236 24.2426 9.26093 23.9104 9.26093 23.2448C9.26093 22.721 8.59311 22.3909 8.18421 22.7127ZM9.71963 22.6354C9.63232 22.7228 9.66627 23.8747 9.75818 23.9429C9.85187 24.0124 10.542 24.0097 10.6121 23.9395C10.6877 23.8638 10.5955 23.8275 10.2838 23.81L9.98108 23.793L9.94679 23.2146C9.91551 22.6872 9.84569 22.5091 9.71963 22.6354ZM12.7992 22.8024C12.4896 23.1708 12.5892 23.7429 12.9988 23.949C13.0743 23.9869 13.2981 24.0021 13.4961 23.9826L13.8562 23.9473V23.6126C13.8562 23.2908 13.8486 23.2779 13.6619 23.2779C13.396 23.2779 13.3546 23.3415 13.5287 23.4826L13.6755 23.6016L13.4949 23.7202C13.265 23.871 13.0631 23.8098 12.9281 23.5483C12.7978 23.296 12.8586 23.0308 13.0801 22.8855C13.2338 22.7846 13.2669 22.785 13.4854 22.8893C13.706 22.9947 13.7265 22.9947 13.7666 22.8901C13.8297 22.7255 13.6047 22.591 13.2662 22.591C13.0272 22.591 12.9458 22.6278 12.7992 22.8024ZM14.3177 22.6778C14.2982 22.7287 14.2867 23.0308 14.2921 23.3493C14.3006 23.846 14.3194 23.9316 14.4245 23.952C14.5365 23.9737 14.5455 23.918 14.5274 23.3062C14.5151 22.8867 14.4789 22.6269 14.4304 22.6109C14.3879 22.5967 14.3372 22.6269 14.3177 22.6778ZM15.1867 22.6436C15.1452 22.6713 15.0777 22.7578 15.0368 22.8357C14.9194 23.0594 15.0766 23.291 15.4291 23.4136C15.5952 23.4715 15.7438 23.5573 15.7596 23.6045C15.8026 23.7337 15.4989 23.819 15.2744 23.7407C15.0339 23.6567 14.8928 23.7601 15.0593 23.8984C15.2341 24.0437 15.8417 24.0189 15.9565 23.8617C16.1704 23.5687 16.0098 23.2668 15.5927 23.1781C15.4727 23.1525 15.3412 23.0914 15.3004 23.0421C15.1846 22.9025 15.3852 22.7755 15.6349 22.8305C15.8951 22.8877 16.0202 22.8226 15.9087 22.6879C15.8244 22.5863 15.3188 22.5552 15.1867 22.6436ZM16.3593 22.6602C16.3357 22.6982 16.3648 22.7446 16.4238 22.7632C16.4827 22.7818 16.5773 22.8116 16.6339 22.8293C16.707 22.8522 16.7368 22.959 16.7368 23.1985C16.7368 23.67 16.806 23.9647 16.9168 23.9647C16.9882 23.9647 17.0111 23.8429 17.0111 23.4633C17.0111 22.9455 17.0753 22.7971 17.2992 22.7971C17.3671 22.7971 17.4226 22.7507 17.4226 22.694C17.4226 22.6117 17.3202 22.591 16.9123 22.591C16.6315 22.591 16.3827 22.6221 16.3593 22.6602ZM17.9791 22.986C17.8941 23.2032 17.7804 23.4824 17.7264 23.6064C17.6725 23.7305 17.6284 23.8619 17.6284 23.8984C17.6284 24.0227 17.809 23.9651 17.9585 23.793C18.0427 23.696 18.1817 23.6213 18.2779 23.6213C18.3839 23.6213 18.4907 23.6861 18.5606 23.793C18.674 23.9664 18.8629 24.0273 18.8629 23.8906C18.8629 23.8269 18.6595 23.2647 18.4485 22.7456C18.3332 22.4618 18.1469 22.5572 17.9791 22.986ZM21.655 22.6339C21.6282 22.6607 21.6063 22.9546 21.6063 23.2869C21.6063 23.9675 21.6696 24.0596 22.0989 24.0036C22.2241 23.9873 22.3805 23.9719 22.4465 23.9693C22.7114 23.9591 22.5451 23.8335 22.2408 23.8139C21.9445 23.7949 21.915 23.7774 21.915 23.6213C21.915 23.4744 21.9526 23.4446 22.1744 23.4152C22.5078 23.3711 22.5086 23.2685 22.1763 23.1752C21.9869 23.1219 21.915 23.0645 21.915 22.9666C21.915 22.8572 21.974 22.8248 22.2236 22.7971C22.3934 22.7782 22.5322 22.7318 22.5322 22.694C22.5322 22.6153 21.7286 22.5602 21.655 22.6339ZM23.0858 22.6989C22.8439 22.9412 23.0463 23.4152 23.3917 23.4152C23.4516 23.4152 23.5604 23.4597 23.6337 23.5141C23.7602 23.608 23.7609 23.6189 23.6474 23.7341C23.542 23.8413 23.4994 23.8451 23.2822 23.7664C23.0179 23.6707 22.9388 23.6946 22.9991 23.8519C23.0556 23.9991 23.5496 24.0628 23.7804 23.9525C23.9195 23.8861 23.9782 23.8023 23.9932 23.6493C24.0169 23.4061 23.9317 23.316 23.5538 23.1849C23.3696 23.1211 23.2867 23.0518 23.2867 22.9618C23.2867 22.8566 23.3395 22.8302 23.561 22.825C23.9607 22.8157 23.9865 22.8033 23.8394 22.6918C23.6636 22.5587 23.2217 22.5629 23.0858 22.6989ZM25.9744 22.6354C25.8857 22.7242 25.9206 23.8978 26.013 23.9328C26.2031 24.005 26.7244 24.0074 26.8531 23.9369C26.9697 23.873 26.9336 23.8565 26.6131 23.8273L26.2359 23.793L26.2016 23.2146C26.1703 22.6872 26.1005 22.5091 25.9744 22.6354ZM28.785 22.6368C28.7598 22.662 28.7392 22.971 28.7392 23.3237C28.7392 23.8477 28.758 23.9647 28.8421 23.9647C28.9107 23.9647 28.945 23.896 28.945 23.7587C28.945 23.5859 28.9721 23.5526 29.1125 23.5526C29.2261 23.5526 29.3194 23.6192 29.4017 23.7587C29.4686 23.872 29.5783 23.9647 29.6457 23.9647C29.7935 23.9647 29.7938 23.9615 29.6671 23.717C29.5784 23.5457 29.5784 23.5038 29.6671 23.3682C29.9314 22.9643 29.6888 22.591 29.1622 22.591C28.9798 22.591 28.8101 22.6116 28.785 22.6368ZM30.3638 22.7569C30.0471 23.0508 30.0376 23.4483 30.3389 23.7991C30.4657 23.9468 30.5568 23.9835 30.7967 23.9835C31.0487 23.9835 31.1283 23.9476 31.2973 23.7582C31.4742 23.56 31.494 23.4952 31.4629 23.2188C31.4373 22.9914 31.3772 22.8613 31.2456 22.7478C30.9951 22.5321 30.6017 22.5361 30.3638 22.7569ZM31.9628 22.7284C31.7111 22.9804 31.8402 23.2358 32.3067 23.4085C32.6516 23.5363 32.7165 23.6488 32.5094 23.7597C32.397 23.82 32.3134 23.8187 32.1585 23.7545C31.9153 23.6536 31.7552 23.752 31.9283 23.8958C32.1116 24.0482 32.6222 24.0216 32.7929 23.8508C32.9754 23.6679 32.9261 23.3717 32.6981 23.2818C32.6143 23.2487 32.4455 23.1842 32.3228 23.1384C31.9215 22.9885 32.1034 22.7528 32.5549 22.8377C32.7339 22.8713 32.7858 22.8578 32.7858 22.7777C32.7858 22.552 32.1754 22.5154 31.9628 22.7284ZM33.3075 22.6997C33.2487 22.8532 33.2577 23.7767 33.3189 23.8731C33.3815 23.9717 34.0951 24.0124 34.2305 23.9251C34.2997 23.8806 34.2167 23.8514 33.9517 23.8273C33.6034 23.7956 33.5729 23.7788 33.5532 23.6082C33.5333 23.4357 33.5514 23.4221 33.8275 23.4022C34.171 23.3775 34.2247 23.2533 33.9054 23.2224C33.4362 23.1768 33.4247 22.8183 33.8912 22.784C34.0507 22.7723 34.1938 22.7241 34.2093 22.6769C34.2554 22.5366 33.3614 22.5591 33.3075 22.6997ZM35.392 23.2829C35.392 23.9049 35.4042 23.9724 35.5121 23.9514C35.6034 23.9337 35.6321 23.8599 35.6321 23.6431C35.6321 23.2664 35.7035 23.2115 35.8529 23.4735C36.0267 23.7784 36.1262 23.7881 36.3014 23.5172C36.386 23.3865 36.4782 23.2792 36.5066 23.2787C36.5349 23.2783 36.558 23.4347 36.558 23.6263C36.558 23.9212 36.5764 23.9712 36.678 23.9517C36.7823 23.9315 36.798 23.8429 36.798 23.2779C36.798 22.7194 36.7815 22.6241 36.6811 22.6047C36.5999 22.589 36.4983 22.6989 36.3488 22.9643C36.2303 23.1746 36.1048 23.3289 36.0701 23.3073C36.0352 23.2858 35.9296 23.1158 35.8354 22.9296C35.7169 22.6954 35.6221 22.591 35.528 22.591C35.4014 22.591 35.392 22.6388 35.392 23.2829ZM37.3128 22.6936C37.2085 22.8194 37.2772 23.5961 37.4081 23.7731C37.6556 24.1076 38.2557 24.0547 38.4485 23.6814C38.5892 23.4091 38.5604 22.6254 38.4098 22.6254C38.3329 22.6254 38.297 22.7381 38.2678 23.0718C38.2463 23.3174 38.2056 23.5693 38.1773 23.6317C38.1049 23.7918 37.895 23.8297 37.7284 23.7128C37.6127 23.6317 37.5868 23.5398 37.5868 23.2109C37.5868 22.6262 37.5017 22.4656 37.3128 22.6936ZM39.0145 22.9116C38.9855 23.6798 38.9894 23.8653 39.0361 23.9311C39.0776 23.9898 39.2472 23.9972 39.9015 23.9685C39.9487 23.9664 39.9873 23.9338 39.9873 23.896C39.9873 23.8582 39.8561 23.8269 39.6958 23.8263C39.5355 23.8257 39.3671 23.8016 39.3217 23.7727C39.2719 23.7409 39.2311 23.5051 39.2188 23.1783C39.2055 22.821 39.1693 22.6267 39.1128 22.608C39.0532 22.5882 39.0232 22.6807 39.0145 22.9116ZM40.0559 22.6895C40.0559 22.7458 40.1365 22.7972 40.2445 22.8097C40.4315 22.8312 40.4332 22.8362 40.453 23.4025C40.4704 23.8981 40.4886 23.9707 40.5902 23.9514C40.6855 23.9332 40.7138 23.8265 40.7417 23.3802C40.7753 22.8423 40.7798 22.831 40.9646 22.8097C41.0726 22.7972 41.1532 22.7458 41.1532 22.6895C41.1532 22.6122 41.0353 22.591 40.6045 22.591C40.1738 22.591 40.0559 22.6122 40.0559 22.6895ZM41.6105 22.6368C41.5853 22.662 41.5647 22.9733 41.5647 23.3287C41.5647 23.9069 41.5774 23.9724 41.6848 23.9519C41.7841 23.9329 41.8084 23.8401 41.8253 23.4153C41.8527 22.7284 41.7804 22.4666 41.6105 22.6368ZM42.3339 23.295C42.3457 23.7187 42.3808 23.9931 42.4221 23.984C42.4598 23.9758 42.5006 23.8889 42.5127 23.7911C42.5353 23.6095 42.5553 23.5951 42.8867 23.5222C43.3198 23.4271 43.4798 23.0137 43.1893 22.7403C43.0681 22.6264 42.9456 22.591 42.6725 22.591H42.3144L42.3339 23.295ZM43.7336 22.6968C43.673 22.855 43.6825 23.7764 43.7458 23.8762C43.7751 23.9224 43.9656 23.9642 44.1735 23.9699C44.6691 23.9838 44.7197 23.9769 44.7197 23.896C44.7197 23.8582 44.5885 23.8269 44.4282 23.8263C44.2679 23.8257 44.0995 23.8016 44.0541 23.7727C44.0043 23.7409 43.9635 23.5051 43.9512 23.1783C43.9318 22.6601 43.8322 22.4396 43.7336 22.6968ZM45.3542 22.9173C45.1655 23.3467 44.994 23.8133 44.994 23.8974C44.994 24.0284 45.1856 23.9623 45.2963 23.793C45.454 23.552 45.7608 23.5601 45.9439 23.8102C46.0473 23.9513 46.1021 23.9794 46.161 23.9213C46.2157 23.8673 46.2187 23.8043 46.1711 23.7152C46.1333 23.6447 46.0331 23.4015 45.9485 23.1748C45.6869 22.4741 45.571 22.4239 45.3542 22.9173ZM6.75351 22.9605C6.69508 23.1937 6.76147 23.2779 7.00378 23.2779C7.37346 23.2779 7.34822 22.8546 6.97594 22.8099C6.83314 22.7928 6.78787 22.8234 6.75351 22.9605ZM8.30574 22.9781C8.11713 23.2181 8.12618 23.4527 8.33194 23.6587C8.54147 23.8686 8.64771 23.8707 8.83749 23.6684C9.02726 23.4661 9.03295 23.1182 8.84942 22.9344C8.66232 22.7471 8.47535 22.762 8.30574 22.9781ZM11.4063 22.8671C11.1088 22.9871 11.1075 23.4926 11.4042 23.7137L11.5928 23.8542L11.7815 23.7137C12.0887 23.4848 12.0783 23.0215 11.7627 22.8775C11.6657 22.8333 11.5802 22.7991 11.5725 22.8014C11.5648 22.8038 11.49 22.8334 11.4063 22.8671ZM28.9907 22.8429C28.9656 22.868 28.945 22.9726 28.945 23.0752C28.945 23.2087 28.9872 23.2729 29.0933 23.3007C29.3981 23.3805 29.6193 23.0877 29.4114 22.8795C29.3226 22.7906 29.0652 22.7682 28.9907 22.8429ZM30.6094 22.8803C30.5162 22.9254 30.44 23.0417 30.4146 23.1775C30.3083 23.7444 30.9192 24.0376 31.1616 23.5361C31.2802 23.291 31.2037 22.9736 30.9999 22.8643C30.8486 22.7832 30.8069 22.7849 30.6094 22.8803ZM42.5963 22.8968C42.4542 23.0682 42.5392 23.2415 42.7768 23.2646C42.947 23.2812 43.0031 23.2548 43.0391 23.1411C43.1266 22.8652 42.7806 22.6743 42.5963 22.8968ZM18.151 23.1781C18.0973 23.3183 18.1536 23.4152 18.2888 23.4152C18.3561 23.4152 18.3847 23.363 18.3705 23.266C18.3432 23.0811 18.2088 23.0272 18.151 23.1781ZM45.5199 23.1176C45.4175 23.2201 45.4775 23.4152 45.6113 23.4152C45.7547 23.4152 45.7764 23.362 45.7068 23.1805C45.6627 23.0651 45.595 23.0424 45.5199 23.1176ZM19.8917 23.4455C19.8917 23.5251 19.9637 23.5526 20.1717 23.5526C20.5291 23.5526 20.5054 23.3902 20.1436 23.3596C19.952 23.3434 19.8917 23.3639 19.8917 23.4455ZM7.42997 25.0606C7.11647 25.2521 7.00742 25.6401 7.17044 25.984C7.33594 26.3333 7.62537 26.4765 7.96185 26.3756C8.10273 26.3333 8.23729 26.2482 8.26095 26.1865C8.32296 26.0248 8.25773 25.9915 8.05774 26.0828C7.8111 26.1953 7.65857 26.1823 7.4882 26.0344C7.31269 25.8819 7.29733 25.6056 7.4513 25.3703C7.57016 25.1887 7.74608 25.1562 7.96768 25.275C8.04361 25.3157 8.15732 25.3288 8.22035 25.3043C8.3185 25.2661 8.30732 25.2356 8.14258 25.093C7.91 24.8915 7.72098 24.8829 7.42997 25.0606ZM8.75799 24.9721C8.70093 25.0292 8.6973 26.181 8.75374 26.3283C8.80655 26.4662 8.918 26.4009 8.918 26.2321C8.918 26.1615 8.97082 26.0509 9.03542 25.9862C9.14619 25.8752 9.16718 25.8854 9.40942 26.167C9.6267 26.4196 9.67313 26.4467 9.71264 26.3437C9.73829 26.2768 9.71977 26.1482 9.67155 26.0579C9.59872 25.9216 9.6016 25.8572 9.68843 25.6775C9.81634 25.413 9.778 25.2401 9.55187 25.062C9.38363 24.9294 8.85978 24.8701 8.75799 24.9721ZM13.7118 25.1838C13.7034 25.4834 13.7041 26.1579 13.7129 26.2828C13.7241 26.4416 13.8531 26.3704 13.8997 26.1798C13.9549 25.9539 14.0368 25.8903 14.2742 25.8889C14.507 25.8875 14.6792 25.6898 14.6792 25.4238C14.6792 25.1281 14.4112 24.9263 14.0184 24.9263C13.7194 24.9263 13.719 24.9266 13.7118 25.1838ZM15.1365 24.9721C15.1113 24.9972 15.0907 25.3218 15.0907 25.6933C15.0907 26.2205 15.1114 26.3687 15.185 26.3687C15.2369 26.3687 15.2978 26.2759 15.3205 26.1626C15.3493 26.0179 15.4016 25.9565 15.4958 25.9565C15.5696 25.9565 15.696 26.0493 15.7766 26.1626C15.8572 26.2759 15.9673 26.3687 16.0213 26.3687C16.139 26.3687 16.1449 26.2935 16.0443 26.0723C15.9852 25.9425 15.9933 25.8597 16.082 25.6879C16.2162 25.4282 16.1752 25.2549 15.9347 25.0654C15.7624 24.9296 15.2398 24.8686 15.1365 24.9721ZM18.054 25.034C17.8533 25.1748 17.9297 25.2898 18.1864 25.2333C18.3974 25.1869 18.6195 25.3014 18.5469 25.4191C18.5247 25.4549 18.4325 25.5124 18.3419 25.547C18.1201 25.6314 18.1343 25.7221 18.3828 25.8089C18.496 25.8484 18.5886 25.9281 18.5886 25.986C18.5886 26.1239 18.2963 26.1946 18.119 26.0995C17.926 25.9961 17.8535 26.1317 18.0095 26.3043C18.1718 26.4838 18.4721 26.472 18.6983 26.2771C18.8658 26.1329 18.877 26.0958 18.8107 25.9055C18.7703 25.7892 18.7537 25.5704 18.774 25.4192C18.8078 25.1661 18.7942 25.1358 18.6002 25.0354C18.3369 24.8989 18.2469 24.8987 18.054 25.034ZM19.2401 24.995C19.1645 25.1176 19.2772 25.201 19.5185 25.201C19.8125 25.201 19.8159 25.2691 19.5488 25.8083C19.3165 26.2772 19.2995 26.3687 19.4448 26.3687C19.5661 26.3687 20.1888 25.1536 20.137 25.018C20.0948 24.9082 19.3062 24.8879 19.2401 24.995ZM21.4272 24.9936C20.8821 25.2142 20.8407 26.0557 21.3613 26.3364C21.5649 26.4462 21.5952 26.4466 21.7969 26.3421C22.0687 26.2014 22.155 26.0423 22.155 25.6818C22.155 25.3267 22.0688 25.1623 21.8135 25.03C21.7033 24.973 21.6039 24.9283 21.5926 24.9306C21.5813 24.933 21.5069 24.9614 21.4272 24.9936ZM22.7997 25.1598C22.6187 25.3411 22.5665 25.4501 22.5665 25.6472C22.5665 25.9528 22.7353 26.261 22.9583 26.3628C23.2095 26.4774 23.3146 26.4543 23.532 26.2366C23.696 26.0724 23.7325 25.9778 23.7325 25.7169C23.7325 25.3271 23.652 25.1652 23.3909 25.03C23.1112 24.8851 23.0635 24.8956 22.7997 25.1598ZM24.3326 25.0344C24.1131 25.1534 24.0819 25.3384 24.2812 25.3384C24.4006 25.3384 24.4183 25.3842 24.4183 25.6936C24.4183 25.9226 24.3794 26.0919 24.3087 26.17C24.1548 26.3404 24.2443 26.4373 24.5555 26.4373C24.8647 26.4373 24.9564 26.3406 24.8054 26.1735C24.7327 26.0931 24.6925 25.8838 24.6787 25.5137C24.6675 25.2156 24.6275 24.9628 24.5898 24.9519C24.5521 24.941 24.4363 24.9781 24.3326 25.0344ZM27.7847 25.0225C27.7336 25.0841 27.7121 25.3375 27.7249 25.7265C27.7407 26.2103 27.7656 26.3343 27.8469 26.3343C27.9061 26.3343 27.9639 26.25 27.9841 26.1339C28.0341 25.8474 28.1502 25.8446 28.3733 26.1245C28.6569 26.4805 28.8351 26.4485 28.664 26.0723C28.6048 25.9422 28.6132 25.8594 28.7036 25.6843C28.9131 25.2786 28.6292 24.9263 28.0928 24.9263C27.9672 24.9263 27.8286 24.9696 27.7847 25.0225ZM29.3839 25.1598C29.1928 25.3512 29.1507 25.4453 29.1507 25.6818C29.1507 25.919 29.1927 26.0123 29.3868 26.2067C29.6136 26.4338 29.6372 26.4413 29.9869 26.3966C30.1871 26.371 30.3577 26.3449 30.366 26.3386C30.4123 26.3033 30.4649 25.53 30.4301 25.3953C30.3805 25.2034 29.993 24.9263 29.7741 24.9263C29.687 24.9263 29.5132 25.0303 29.3839 25.1598ZM30.9647 25.0139C30.9448 25.0658 30.9375 25.3996 30.9484 25.7556L30.9683 26.403L31.2714 26.4247C31.9165 26.4709 32.1409 26.2267 31.5122 26.1626C31.2526 26.1362 31.1696 26.0986 31.1507 25.9991C31.1198 25.8361 31.2488 25.7529 31.5341 25.7515C31.6567 25.751 31.757 25.7232 31.757 25.6898C31.757 25.6203 31.5211 25.5468 31.294 25.5454C31.1754 25.5446 31.1397 25.5047 31.1397 25.3727C31.1397 25.2121 31.1622 25.201 31.4877 25.201C31.782 25.201 31.8321 25.1825 31.8128 25.0808C31.7828 24.9228 31.0226 24.8628 30.9647 25.0139ZM33.8387 24.9945C33.5136 25.1259 33.5567 25.372 33.8832 25.2487C34.0558 25.1834 34.1076 25.1905 34.2087 25.2934C34.3235 25.4102 34.3196 25.4234 34.1232 25.5845C33.5853 26.0258 33.5301 26.0896 33.5522 26.2453C33.5731 26.3926 33.6061 26.403 34.0546 26.403C34.4357 26.403 34.5347 26.3817 34.5347 26.3C34.5347 26.2292 34.4488 26.1901 34.2604 26.1752C33.8913 26.1459 33.8286 26.0629 34.0644 25.9159C34.6036 25.58 34.704 25.3173 34.3883 25.0687C34.195 24.9163 34.0729 24.8999 33.8387 24.9945ZM35.2348 25.0647C34.8648 25.3562 34.8259 26.0309 35.1638 26.297C35.3892 26.4746 35.5326 26.4741 35.76 26.295C36.0297 26.0826 36.0164 25.6875 35.7341 25.5205C35.609 25.4466 35.4713 25.4162 35.3849 25.4437C35.2712 25.4798 35.2475 25.4633 35.2682 25.3622C35.2891 25.2604 35.3512 25.2379 35.5832 25.2483C35.9047 25.2628 35.9486 25.1937 35.7197 25.0332C35.5204 24.8934 35.4461 24.8983 35.2348 25.0647ZM38.485 25.0513C38.446 25.1242 38.3931 25.316 38.3673 25.4776L38.3204 25.7714L38.5971 25.7271C38.8055 25.6937 38.8961 25.7095 38.9636 25.7911C39.1042 25.9607 38.9555 26.1283 38.6645 26.1283C38.3417 26.1283 38.2909 26.1951 38.5062 26.3364C38.8356 26.5525 39.2328 26.3255 39.2328 25.9212C39.2328 25.6758 39.0412 25.4758 38.806 25.4758C38.7299 25.4758 38.6841 25.4242 38.6841 25.3384C38.6841 25.2266 38.7299 25.201 38.9292 25.201C39.1256 25.201 39.1698 25.1771 39.1516 25.0808C39.1166 24.8964 38.5804 24.8726 38.485 25.0513ZM39.7762 25.127C39.6659 25.2375 39.5758 25.3742 39.5758 25.4308C39.5758 25.601 39.9217 25.9647 40.0466 25.9259C40.1975 25.8789 40.3607 25.9888 40.296 26.0938C40.2635 26.1463 40.158 26.1638 40.0141 26.1403C39.7308 26.0943 39.6587 26.1855 39.8642 26.3296C40.0801 26.4811 40.2412 26.4639 40.4362 26.2687C40.5803 26.1245 40.6045 26.036 40.6045 25.6556C40.6045 25.2571 40.5858 25.1962 40.4238 25.0687C40.1778 24.8748 40.0133 24.8897 39.7762 25.127ZM10.2503 25.0866C10.231 25.1369 10.2243 25.4383 10.2353 25.7563C10.2513 26.2153 10.2766 26.3343 10.3583 26.3343C10.4396 26.3343 10.4562 26.2589 10.4377 25.9737C10.4127 25.5885 10.5003 25.4989 10.639 25.7677C10.771 26.0232 10.9142 26.1555 11.0163 26.1163C11.0693 26.0959 11.1127 26.0505 11.1127 26.0155C11.1127 25.9804 11.1668 25.8686 11.2328 25.7671L11.3528 25.5826L11.3871 25.9578C11.4132 26.244 11.4499 26.3386 11.5414 26.3559C11.6493 26.3764 11.6614 26.3084 11.6614 25.6821C11.6614 25.0029 11.6577 24.986 11.5101 25.0073C11.4105 25.0218 11.2997 25.1408 11.1859 25.3556C11.0908 25.535 10.9786 25.6818 10.9366 25.6818C10.8946 25.6818 10.7762 25.5273 10.6736 25.3384C10.4915 25.0034 10.3211 24.902 10.2503 25.0866ZM12.5668 25.6095C12.1279 26.2438 12.0736 26.3687 12.2369 26.3687C12.334 26.3687 13.1703 25.2045 13.1703 25.0691C13.1703 24.8595 12.9482 25.0582 12.5668 25.6095ZM37.3356 25.3196C37.0165 25.6996 36.8788 25.9358 36.9522 25.9777C36.9805 25.9939 37.1161 26.0275 37.2534 26.0522C37.4214 26.0826 37.5147 26.1417 37.5385 26.233C37.558 26.3076 37.6163 26.3687 37.6682 26.3687C37.7812 26.3687 37.9457 25.9682 37.8768 25.8606C37.8501 25.819 37.8125 25.6172 37.7933 25.4125C37.774 25.2077 37.7251 25.0292 37.6846 25.0158C37.6442 25.0025 37.4871 25.1392 37.3356 25.3196ZM8.95538 25.3287C8.88323 25.5563 8.98488 25.6911 9.21134 25.6683C9.47019 25.6422 9.5994 25.4642 9.47149 25.3098C9.34385 25.1558 9.00621 25.1683 8.95538 25.3287ZM13.9074 25.3286C13.8581 25.5176 13.9778 25.6818 14.1648 25.6818C14.3667 25.6818 14.488 25.494 14.3966 25.323C14.3067 25.1547 13.9518 25.1588 13.9074 25.3286ZM15.3338 25.3287C15.2617 25.5563 15.3633 25.6911 15.5898 25.6683C15.8486 25.6422 15.9779 25.4642 15.8499 25.3098C15.7223 25.1558 15.3847 25.1683 15.3338 25.3287ZM21.3769 25.3266C21.2332 25.4857 21.2298 25.9131 21.3712 26.0547C21.5043 26.1879 21.61 26.191 21.7803 26.0662C21.965 25.931 21.9624 25.449 21.7762 25.308C21.5965 25.172 21.5131 25.1759 21.3769 25.3266ZM22.9532 25.3045C22.7912 25.4666 22.7525 25.6743 22.8433 25.8938C22.9363 26.1187 23.1992 26.2237 23.3518 26.0969C23.4955 25.9774 23.5483 25.6448 23.4525 25.4626C23.3065 25.1852 23.1285 25.1288 22.9532 25.3045ZM28.0111 25.3001C27.9383 25.4902 28.0175 25.6471 28.197 25.6681C28.4336 25.6958 28.5689 25.5329 28.4672 25.3428C28.3794 25.1785 28.0689 25.1494 28.0111 25.3001ZM29.4987 25.382C29.3333 25.5925 29.333 25.594 29.4319 25.878C29.5409 26.1908 29.7768 26.2307 30.041 25.9811C30.2829 25.7524 30.3033 25.561 30.1083 25.3514C29.9189 25.1478 29.673 25.1602 29.4987 25.382ZM39.9214 25.3007C39.8124 25.4323 39.8906 25.6636 40.0626 25.7183C40.3213 25.8005 40.51 25.4772 40.3165 25.2834C40.2048 25.1716 40.0218 25.1797 39.9214 25.3007ZM16.5996 25.5101C16.5996 25.5668 16.6305 25.6131 16.6682 25.6131C16.7059 25.6131 16.7368 25.5668 16.7368 25.5101C16.7368 25.4534 16.7059 25.4071 16.6682 25.4071C16.6305 25.4071 16.5996 25.4534 16.5996 25.5101ZM32.3057 25.4717C32.3057 25.5073 32.3365 25.5554 32.3743 25.5788C32.412 25.6021 32.4429 25.573 32.4429 25.5142C32.4429 25.4553 32.412 25.4071 32.3743 25.4071C32.3365 25.4071 32.3057 25.4361 32.3057 25.4717ZM37.3947 25.5582C37.2803 25.6728 37.2919 25.8192 37.4153 25.8192C37.4793 25.8192 37.5182 25.7543 37.5182 25.6475C37.5182 25.4516 37.5082 25.4445 37.3947 25.5582ZM35.3807 25.6594C35.1289 25.7262 35.1929 26.1626 35.4547 26.1626C35.662 26.1626 35.7684 25.9816 35.6779 25.7828C35.5998 25.6111 35.5853 25.6051 35.3807 25.6594ZM25.9958 25.8118C25.9958 25.9072 26.1951 25.9608 26.3785 25.9147C26.6384 25.8494 26.5732 25.7505 26.2702 25.7505C26.1193 25.7505 25.9958 25.7781 25.9958 25.8118ZM36.3902 26.2254C36.3681 26.2612 36.3793 26.3086 36.415 26.3307C36.4507 26.3528 36.498 26.3416 36.5201 26.3058C36.5422 26.27 36.531 26.2227 36.4952 26.2006C36.4595 26.1785 36.4122 26.1897 36.3902 26.2254ZM16.5996 26.3C16.5996 26.3377 16.6305 26.3687 16.6682 26.3687C16.7059 26.3687 16.7368 26.3377 16.7368 26.3C16.7368 26.2622 16.7059 26.2313 16.6682 26.2313C16.6305 26.2313 16.5996 26.2622 16.5996 26.3ZM32.3057 26.3C32.3057 26.3377 32.3365 26.3687 32.3743 26.3687C32.412 26.3687 32.4429 26.3377 32.4429 26.3C32.4429 26.2622 32.412 26.2313 32.3743 26.2313C32.3365 26.2313 32.3057 26.2622 32.3057 26.3Z" fill="white"/>
</svg>
